<?xml version="1.0" encoding="UTF-8"?>
<svg id="Layer_2" data-name="Layer 2" xmlns="http://www.w3.org/2000/svg" viewBox="0 0 785 1006">
  <defs>
    <style>
      .cls-1 {
        fill: #fdf4d0;
      }

      .cls-2 {
        fill: #e87711;
      }

      .cls-3 {
        fill: #fa9125;
      }

      .cls-4 {
        fill: #002237;
      }

      .cls-5 {
        fill: #321d0e;
      }

      .cls-6 {
        fill: #081c30;
      }

      .cls-7 {
        fill: #dfceab;
      }

      .cls-8 {
        fill: #e66c0c;
      }

      .cls-9 {
        fill: #d06405;
      }

      .cls-10 {
        fill: #e56e0c;
      }

      .cls-11 {
        fill: #00234b;
      }

      .cls-12 {
        fill: #012440;
      }

      .cls-13 {
        fill: #09113a;
      }

      .cls-14 {
        fill: #2e1b0d;
      }

      .cls-15 {
        fill: #cf6305;
      }

      .cls-16 {
        fill: #00365a;
      }

      .cls-17 {
        fill: #00224b;
      }

      .cls-18 {
        fill: #fba032;
      }

      .cls-19 {
        fill: #0a1f45;
      }

      .cls-20 {
        fill: #fea73f;
      }

      .cls-21 {
        fill: #e3e5d6;
      }

      .cls-22 {
        fill: #001624;
      }

      .cls-23 {
        fill: #f7b53c;
      }

      .cls-24 {
        fill: #0e3357;
      }

      .cls-25 {
        fill: #02253f;
      }

      .cls-26 {
        fill: #341e0e;
      }

      .cls-27 {
        fill: #132938;
      }

      .cls-28 {
        fill: #e0cfac;
      }

      .cls-29 {
        fill: #001f30;
      }

      .cls-30 {
        fill: #faa92a;
      }
    </style>
  </defs>
  <g id="Layer_1-2" data-name="Layer 1">
    <path class="cls-16" d="M316,0c35.69.86,71.79,24.01,102,41V9c5.5-1.83,10.93,1.7,16,4,11.5,6.24,21.95,14.87,31.54,23.73,1.71,1.58,3.45,3.14,5.21,4.67,6.5,5.72,11.93,11.79,17.25,18.6.68.81,1.36,1.62,2.05,2.46,3.73,4.49,7.01,9.07,10.07,14.04q1.02,1.65,2.05,3.32,1.82,3.18,2.95,5.95c2.65,6.03,5.93,8.01,11.87,10.36,1.79.66,3.59,1.32,5.39,1.97,7.28,2.64,12.75,5.74,18.61,10.9.65.55,1.3,1.1,1.96,1.67,13.19,12.13,20.43,32.09,21.33,49.73.16,4.96.17,9.92.18,14.89.01,1.84.03,3.68.05,5.52.04,4.81.07,9.63.09,14.44.04,7.68.1,15.37.16,23.05.02,2.65.03,5.29.04,7.94.05,9.13.29,18.22.84,27.34.39,6.48.46,12.92.35,19.42.61-.03,1.21-.07,1.84-.11,12.5-.4,21.88,4.04,31.43,11.99,10.69,10.06,16.23,23.65,16.82,38.22.04,2.31,0,4.59-.09,6.9-.02.81-.03,1.62-.05,2.45-.9,17.27-8.55,33.57-20.95,45.55-2.55,2.21-5.19,4.14-8,6-.77.51-1.54,1.03-2.34,1.56-12.54,7.95-26.84,12-41.66,9.44-.1,1.2-.21,2.39-.31,3.62-4.22,36.78-20.18,68.49-45.49,94.96-2.02,2.12-3.86,4.22-5.7,6.51-2.8,3.25-5.79,5.75-9.19,8.34-.62.48-1.24.95-1.87,1.45-5.04,3.86-10.14,7.62-15.44,11.12-.89.59-1.78,1.18-2.7,1.78-18.06,11.51-37.08,20.27-57.3,27.22-.76.27-1.52.53-2.31.8-10.59,3.63-21.2,5.99-32.26,7.76-.67.11-1.34.22-2.04.33-20.4,3.24-40.76,4.59-61.4,4.11-.94-.01-1.88-.03-2.85-.04-17.08-.27-33.43-2.61-50.15-5.96-.64,10.13-1.27,20.26-1.9,30.39-.29,4.71-.59,9.41-.88,14.12-1.29,20.49-2.56,40.97-3.21,61.49-.03,1.02-.07,2.04-.11,3.09-1.85,54.24-2.22,109.77,10.11,162.91.08-.89.16-1.78.24-2.7,1.31-12.3,4.18-24.03,7.26-35.99.54-2.14,1.09-4.28,1.63-6.41,1.61-6.3,3.23-12.6,4.87-18.9.23-.88.46-1.76.69-2.67,1.42-5.43,2.85-10.85,4.31-16.27.19-.73.39-1.45.59-2.2,2.43-9.03,5.04-18,7.77-26.94.57-1.88,1.14-3.76,1.71-5.64,1.09-3.61,2.21-7.2,3.35-10.79.5-1.65,1-3.29,1.5-4.94.24-.73.48-1.47.73-2.22,1.67-5.62,1.05-9.77-.65-15.33q-.39-1.32-.79-2.67c-.25-.71-.5-1.43-.76-2.16-.28-.81-.57-1.63-.86-2.46q-.45-1.25-.9-2.52c-.31-.87-.61-1.74-.93-2.64-2.09-5.89-4.41-11.59-7.11-17.24q-.65-2.31-.07-4.31c6.83-9.65,17.02-17.02,26.42-24,.9-.68,1.79-1.36,2.71-2.06.77-.56,1.55-1.12,2.35-1.69q.98-.7,1.97-1.42c2.78-1.17,4.11-.78,6.96.17,2.26,1.23,4.36,2.47,6.5,3.88.61.4,1.22.8,1.85,1.21,6.06,4.04,11.53,8.66,16.98,13.46,2.96,2.59,5.97,5.11,8.98,7.64,1.1.93,2.2,1.86,3.3,2.79.79.67,1.58,1.33,2.39,2.02-1.67,5.07-4.64,9.14-7.62,13.5-4.45,6.58-8.74,13.21-12.85,20-1.13,1.86-2.32,3.69-3.52,5.5-.2,2.53-.28,4.91-.25,7.44,0,.75.01,1.51.02,2.28.1,6.36.67,12.63,1.37,18.95.64,5.82,1.11,11.64,1.49,17.49,1.1,16.96,2.84,33.83,4.7,50.72.32,2.97.64,5.93.96,8.9.31,2.88.62,5.76.93,8.63.15,1.36.3,2.72.44,4.09.2,1.88.41,3.76.62,5.64.12,1.06.23,2.13.35,3.22q.31,2.74,1.37,5.64c.4-.73.8-1.46,1.22-2.21,7.32-13.26,14.67-26.48,22.42-39.49,2.83-4.77,5.63-9.57,8.43-14.36.6-1.03,1.2-2.06,1.83-3.13,3.36-5.76,6.68-11.55,9.92-17.37,3.51-6.29,7.17-12.47,10.89-18.63,2.34-3.87,4.63-7.78,6.92-11.68,4.22-7.2,8.51-14.35,12.81-21.5,4.81-8,9.57-16.02,14.22-24.11,4.2-7.3,8.45-14.57,12.71-21.83.37-.62.73-1.25,1.11-1.89,4.21-7.18,8.43-14.34,12.68-21.49,14.07-23.7,27.97-47.69,39.98-72.52.85-1.75,1.71-3.49,2.58-5.23,5.41-11.19,7.61-22.3,9.29-34.55q2.2-.29,5,0,2.36,1.94,4.75,4.56c4.48,4.69,9,8.64,14.25,12.44.61.44,1.22.88,1.84,1.34,9.15,6.62,18.4,12.95,28.16,18.66q1.06.62,2.13,1.26c14.57,8.59,29.55,16.35,44.6,24.06,9.65,4.96,19.23,10.07,28.75,15.3,1.67.92,3.35,1.83,5.03,2.73,18.2,9.78,34.56,20.26,49.48,34.65.56.53,1.11,1.05,1.69,1.6,4.42,4.28,8.12,8.84,11.69,13.84.56.79,1.12,1.58,1.7,2.39,5.23,7.44,9.86,15.04,13.92,23.18q.54,1.07,1.09,2.16c13.1,26.53,18.95,56.61,23.56,85.64.36,2.28.73,4.56,1.1,6.84,3.36,20.88,6.37,41.81,9.12,62.77.68,5.21,1.38,10.42,2.08,15.62,4.64,34.3,8.92,68.63,12.69,103.03.29,2.65.58,5.3.87,7.94.46,4.22.92,8.44,1.38,12.66.17,1.53.33,3.07.5,4.6,1.48,13.56,2.52,27.12,3.6,40.73H0q9.24-44.13,13.48-62.99c1.93-8.77,3.65-17.58,5.39-26.39,3.34-16.87,6.89-33.68,10.57-50.48,1.27-5.81,2.51-11.62,3.74-17.43,4-18.85,8.12-37.67,12.51-56.44,2.19-9.4,4.32-18.81,6.38-28.23,9.28-42.47,19.48-83.3,46.93-118.04.66-.87,1.32-1.73,2-2.62,14.04-17.91,31.41-32.94,51.12-44.29,2.14-1.23,4.27-2.49,6.4-3.74,10.95-6.39,22.1-12.32,33.37-18.11,9.98-5.13,19.84-10.49,29.67-15.89,5.78-3.16,11.61-6.25,17.43-9.33q-.82-.55-1.65-1.1c-1.6-1.06-3.19-2.13-4.79-3.2-1.6-1.06-3.2-2.12-4.81-3.16-34.18-22.22-60.15-56.67-68.67-96.82-.77-3.9-1.5-7.8-2.08-11.73-.18-1.19-.36-2.38-.55-3.6-.62-5.07-.48-10.09-.38-15.18.01-2.08.02-4.16.02-6.24,0-3.25.03-6.49.11-9.74q.81-12.35-3.59-23.32-2.84-2.13-5.86-3.51c-4.78-2.45-7.1-6.89-9.75-11.41q-.58-.97-1.17-1.96c-8.8-16.07-10.63-37.42-5.88-55.04,3.12-8.93,7.25-17.51,15.05-23.19.66-.49,1.32-.98,2-1.48,3.16-2.1,5.15-3.33,9-3.33,0-1.1,0-2.2-.01-3.33-.04-10.44-.07-20.89-.09-31.33-.01-5.37-.02-10.73-.05-16.1-.02-5.19-.03-10.39-.04-15.58,0-1.97-.01-3.93-.02-5.9-.05-9.58.05-19.06,1.07-28.59q.11-1.06.22-2.14c1.1-9.13,4.49-17.55,7.92-26.03-.5-.34-.99-.68-1.5-1.03-10.88-7.76-18.64-18.5-21.93-31.59-3.11-21.5,1.61-38.92,12.44-57.38,4.23-.36,6.02.38,9.31,3,12.14,8.93,27.4,15.41,41.69,20-.04-.95-.08-1.91-.12-2.89.04-20.93,11.38-45.84,24.12-62.11,6.12.41,10.39,3.34,15.5,6.44,21.33,12.53,44.56,22.3,68.5,28.56-.01-.81-.02-1.63-.03-2.46-.07-8.84.27-17.6.83-26.42.14-2.21.27-4.42.4-6.63.09-1.42.18-2.85.26-4.27.08-1.27.16-2.53.24-3.84.25-2.87.66-5.57,1.3-8.37Z"/>
    <path class="cls-26" d="M316,0c35.69.86,71.79,24.01,102,41V9c5.5-1.83,10.93,1.7,16,4,11.5,6.24,21.95,14.87,31.54,23.73,1.71,1.58,3.45,3.14,5.21,4.67,6.5,5.72,11.93,11.79,17.25,18.6.68.81,1.36,1.62,2.05,2.46,3.73,4.49,7.01,9.07,10.07,14.04q1.02,1.65,2.05,3.32,1.82,3.18,2.95,5.95c2.65,6.03,5.93,8.01,11.87,10.36,1.79.66,3.59,1.32,5.39,1.97,7.28,2.64,12.75,5.74,18.61,10.9.65.55,1.3,1.1,1.96,1.67,13.19,12.13,20.43,32.09,21.33,49.73.16,4.96.17,9.92.18,14.89.01,1.84.03,3.68.05,5.52.04,4.81.07,9.63.09,14.44.04,7.68.1,15.37.16,23.05.02,2.65.03,5.29.04,7.94.05,9.13.29,18.22.84,27.34.39,6.48.46,12.92.35,19.42q.91-.05,1.84-.11c12.5-.4,21.88,4.04,31.43,11.99,10.69,10.06,16.23,23.65,16.82,38.22.04,2.31,0,4.59-.09,6.9-.02.81-.03,1.62-.05,2.45-.9,17.27-8.55,33.57-20.95,45.55-2.55,2.21-5.19,4.14-8,6q-1.16.77-2.34,1.56c-12.54,7.95-26.84,12-41.66,9.44-.1,1.2-.21,2.39-.31,3.62-4.22,36.78-20.18,68.49-45.49,94.96-2.02,2.12-3.86,4.22-5.7,6.51-2.8,3.25-5.79,5.75-9.19,8.34-.62.48-1.24.95-1.87,1.45-5.04,3.86-10.14,7.62-15.44,11.12-.89.59-1.78,1.18-2.7,1.78-18.06,11.51-37.08,20.27-57.3,27.22-.76.27-1.52.53-2.31.8-10.59,3.63-21.2,5.99-32.26,7.76-.67.11-1.34.22-2.04.33-20.4,3.24-40.76,4.59-61.4,4.11-.94-.01-1.88-.03-2.85-.04-34.47-.55-66.51-7.06-92.67-30.63-1.37-1.23-2.77-2.44-4.16-3.65-27.62-24.09-44.97-56.5-50.32-92.68-.18-1.19-.36-2.38-.55-3.6-.62-5.07-.48-10.09-.38-15.18.01-2.08.02-4.16.02-6.24,0-3.25.03-6.49.11-9.74q.81-12.35-3.59-23.32-2.84-2.13-5.86-3.51c-4.78-2.45-7.1-6.89-9.75-11.41q-.58-.97-1.17-1.96c-8.8-16.07-10.63-37.42-5.88-55.04,3.12-8.93,7.25-17.51,15.05-23.19.66-.49,1.32-.98,2-1.48,3.16-2.1,5.15-3.33,9-3.33,0-1.1,0-2.2-.01-3.33-.04-10.44-.07-20.89-.09-31.33-.01-5.37-.02-10.73-.05-16.1-.02-5.19-.03-10.39-.04-15.58,0-1.97-.01-3.93-.02-5.9-.05-9.58.05-19.06,1.07-28.59.07-.71.15-1.41.22-2.14,1.1-9.13,4.49-17.55,7.92-26.03-.5-.34-.99-.68-1.5-1.03-10.88-7.76-18.64-18.5-21.93-31.59-3.11-21.5,1.61-38.92,12.44-57.38,4.23-.36,6.02.38,9.31,3,12.14,8.93,27.4,15.41,41.69,20-.04-.95-.08-1.91-.12-2.89.04-20.93,11.38-45.84,24.12-62.11,6.12.41,10.39,3.34,15.5,6.44,21.33,12.53,44.56,22.3,68.5,28.56-.01-.81-.02-1.63-.03-2.46-.07-8.84.27-17.6.83-26.42.14-2.21.27-4.42.4-6.63.09-1.42.18-2.85.26-4.27.08-1.27.16-2.53.24-3.84.25-2.87.66-5.57,1.3-8.37Z"/>
    <path class="cls-20" d="M191,150c.52.16,1.05.32,1.59.48,1.71.51,3.42,1.03,5.13,1.54,2.35.7,4.69,1.43,7.02,2.16,10.05,3.11,20.12,5.49,30.48,7.33,1.87.34,3.73.69,5.59,1.06,33.68,6.67,69.3,5.15,102.78-1.72,27.06-5.51,54.34-8.18,81.97-8.28q1.16,0,2.34-.02c19.21-.1,37.86,2.61,52.39,16.48,10.88,12.59,11.74,25.69,12.03,41.63.02.99.04,1.99.06,3.01.07,3.24.13,6.48.18,9.71q.03,1.68.06,3.39c.54,29.22.78,58.45,0,87.67q-.05,1.93-.09,3.89c-.83,25.92-7.15,47.16-24.53,66.67-.75.84-1.5,1.68-2.27,2.55-9.25,9.83-20.22,15.7-32.73,20.45-.84.36-1.68.72-2.54,1.09-2.49.92-4.63,1.3-7.27,1.53q-1.19.11-2.39.23c-.59.05-1.18.1-1.79.15-.4-.68-.8-1.36-1.21-2.05-13.07-21.39-30.1-32.35-53.76-39.46-8.55-1.36-16.73-.24-25.15,1.39-2.03.37-4.06.74-6.09,1.1-.99.18-1.97.35-2.99.54-19.08,3.33-36.98,4.06-55.69-1.38-10.71-3.07-19.31-.45-28.96,4.89-12.78,7.51-23.41,16.97-30.84,29.89q-1.3,2.08-3.3,3.08c-12.83-3.08-24.95-9.33-32.25-20.62-5.42-9.96-7.35-19.98-7.48-31.22-.03-1.2-.06-2.4-.09-3.64-.08-3.84-.14-7.67-.19-11.51-.04-2.51-.08-5.02-.13-7.54-.11-7.27-.18-14.53-.24-21.8-.02-2.15-.04-4.3-.06-6.45-.07-7.55-.13-15.09-.19-22.64-.05-6.97-.12-13.93-.19-20.9-.06-6.05-.11-12.11-.16-18.16-.03-3.58-.06-7.17-.1-10.75-.26-23.94-.15-46.95,11.06-68.76.5-.98,1-1.97,1.51-2.98,2.44-4.65,4.61-8.42,8.49-12.02Z"/>
    <path class="cls-1" d="M507,482h1c.03.68.05,1.35.08,2.05q.19,5.49,2.73,10.14c.72.6,1.44,1.2,2.19,1.81,3.95,5.59,4.48,9.02,3.44,15.69-.11.8-.22,1.6-.34,2.42-.34,2.3-.71,4.6-1.1,6.89-.15,1.02-.31,2.05-.46,3.1-1.92,9.72-6.88,18.56-11.27,27.35-1.13,2.27-2.24,4.54-3.35,6.82-4.94,10.11-10.37,19.93-15.92,29.72-.46.82-.93,1.64-1.41,2.49-6.55,11.58-13.25,23.06-20.03,34.5-4.08,6.89-8.13,13.79-12.18,20.7-.36.62-.73,1.24-1.1,1.88-4.45,7.59-8.88,15.19-13.27,22.8-5.21,9.02-10.57,17.95-15.96,26.87-5.27,8.74-10.44,17.52-15.6,26.32-.36.61-.71,1.22-1.08,1.84-3.87,6.6-7.72,13.21-11.51,19.86-3.22,5.66-6.51,11.26-9.85,16.86-11.33,19.1-22.29,38.42-33,57.88h-1c-4.79-34.12-8.38-68.49-10.64-102.88-.38-5.76-.95-11.51-1.6-17.24-1.26-12.15,1.53-18.93,8.6-28.59,2.56-3.56,4.94-7.23,7.35-10.89,2.74-4.15,5.51-8.28,8.29-12.4-1.82-4-4.39-6.32-7.75-9.06-.57-.48-1.15-.95-1.74-1.44-1.83-1.51-3.67-3-5.51-4.5-.6-.49-1.19-.97-1.8-1.47q-11.85-11.08-25.7-16.37c-14,4.73-26.53,18.42-36.5,28.84,2.41,7.48,5.18,14.78,8.04,22.1,1.01,2.63,1.99,5.26,2.96,7.9q.49,1.26.99,2.54c3.46,9.74-.18,18.58-3.04,28.13-.29,1-.59,1.99-.89,3.02-.93,3.17-1.87,6.33-2.81,9.5-4.43,14.91-8.66,29.84-12.51,44.91-.76,2.97-1.53,5.95-2.3,8.92-1.32,5.08-2.62,10.16-3.91,15.24-.52,2.05-1.05,4.1-1.58,6.14-3.34,12.85-5.94,25.35-6.95,38.6-3.45-3.45-3.53-8.45-4.44-13.12-.2-.98-.41-1.96-.62-2.98-4.12-20.73-5.66-41.76-6.69-62.84-.06-1.28-.13-2.57-.2-3.89-1.39-28.42-1.06-56.74-.05-85.17.03-.95.06-1.9.1-2.88,1.19-34.74,3.66-69.43,5.9-104.12.84.15,1.69.29,2.55.45,3.19.55,6.38,1.1,9.57,1.65,1.37.23,2.74.47,4.11.71,11.68,2.04,23.18,3.05,35.05,3.17,2.56.03,5.12.1,7.67.18,29.85.74,61.72-2.54,90.04-12.15.84-.28,1.69-.57,2.56-.86,28.1-9.55,54.4-22.75,77.19-41.92.65-.55,1.31-1.09,1.98-1.65.58-.49,1.17-.99,1.77-1.5q1.51-1.07,3.51-1.07.33-.82.67-1.66c1.75-3.06,4.12-5.29,6.64-7.71,3.07-3,6.11-5.97,8.81-9.31.62-.76,1.24-1.53,1.88-2.31Z"/>
    <path class="cls-4" d="M321,615c2.26,1.23,4.36,2.47,6.5,3.88.61.4,1.22.8,1.85,1.21,6.06,4.04,11.53,8.66,16.98,13.46,2.96,2.59,5.97,5.11,8.98,7.64,1.1.93,2.2,1.86,3.3,2.79.79.67,1.58,1.33,2.39,2.02-1.67,5.07-4.64,9.14-7.62,13.5-4.45,6.58-8.74,13.21-12.85,20-1.13,1.86-2.32,3.69-3.52,5.5-.2,2.53-.28,4.91-.25,7.44,0,.75.01,1.51.02,2.28.1,6.36.66,12.63,1.37,18.95.64,5.83,1.11,11.65,1.49,17.5,1.09,16.9,2.87,33.7,4.76,50.53.65,5.81,1.29,11.62,1.93,17.42.22,2,.45,4,.67,6q.2,1.82.41,3.67.18,1.59.36,3.2c.46,5.42.48,9.28-1.92,14.21q-.71,1.48-1.44,2.99c-.52,1.05-1.04,2.1-1.58,3.18-.53,1.09-1.07,2.19-1.62,3.31-6.21,12.59-12.94,24.9-19.78,37.16-3,5.41-5.75,10.81-8.1,16.53-.33.78-.65,1.56-.99,2.37-3.37,8.17-6.44,16.45-9.54,24.73-2.81,7.5-5.73,14.89-9.1,22.16-9.54,20.71-12.73,41.73-15.69,64.38,101.31.33,202.62.66,307,1-.66-3.3-1.32-6.6-2-10-.22-1.96-.39-3.93-.49-5.9-.06-1.05-.11-2.09-.17-3.17-.05-1.11-.1-2.21-.16-3.36-.06-1.19-.12-2.38-.19-3.61-.13-2.52-.25-5.05-.38-7.57-.18-3.73-.37-7.46-.57-11.18-.63-12.32-1.12-24.63-1.43-36.96-.41-16.15-1.08-32.29-1.81-48.43-.05-1.2-.11-2.41-.17-3.65-.51-11.26-1.03-22.51-1.56-33.77-.29-6.23-.58-12.46-.86-18.7-.11-2.33-.22-4.66-.33-6.98-.6-12.57-1.03-25.14-1.15-37.72-.02-1.17-.04-2.34-.06-3.55,0-1.08,0-2.15-.01-3.26q-.01-1.43-.03-2.89c.12-.76.24-1.51.36-2.29,3.23-2.16,4.25-2.47,8-2,1.97,1.53,2.88,2.48,3.46,4.92q.06,1.1.12,2.22t.16,2.56c.04.92.08,1.85.13,2.8.06.98.11,1.95.17,2.96.18,3.25.34,6.51.5,9.76.12,2.3.25,4.61.37,6.91.39,7.29.75,14.58,1.1,21.88l.34,6.95c.73,15,1.41,30.01,2.06,45.02.16,3.66.32,7.32.48,10.98,1.24,27.97,2.46,55.94,3.42,83.93.04,1.12.08,2.23.12,3.38.35,10,.63,19.99.67,30,0,.75.01,1.49.02,2.26,0,3.11-.13,5.51-1.12,8.48h189c-.33-5.94-.66-11.88-1-18h1c.66,6.6,1.32,13.2,2,20H0q.99-1.98,2-4c.33.66.66,1.32,1,2h80c.33-8.25.66-16.5,1-25q.93-12.91,1.31-17.28c.54-6.38,1.07-12.77,1.59-19.15.09-1.12.18-2.24.28-3.39,1-12.18,1.92-24.37,2.83-36.56.25-3.31.5-6.63.75-9.94.17-2.22.33-4.43.5-6.65.93-12.39,1.87-24.77,2.82-37.16.08-1.1.17-2.2.25-3.33,1.09-14.26,2.26-28.5,3.54-42.74.83-9.41,1.51-18.83,2.15-28.25.09-1.27.17-2.54.27-3.86.44-6.4.87-12.81,1.29-19.21.16-2.36.32-4.71.48-7.07.07-1.09.14-2.19.2-3.31.07-1.01.14-2.02.21-3.06.06-.88.12-1.76.17-2.67.4-2.53.96-4.23,2.37-6.37q2.94-.88,6-1,1.49.99,3,2c.27,2.58.34,4.89.27,7.47-.01.79-.02,1.58-.03,2.39-.22,11.56-.9,23.1-1.55,34.64-.07,1.22-.13,2.43-.2,3.69-.98,17.57-2.26,35.07-3.92,52.59-.82,8.75-1.43,17.52-2.06,26.28-.06.87-.13,1.73-.19,2.63-.32,4.39-.63,8.78-.94,13.18-.57,8.04-1.16,16.09-1.74,24.13-.06.8-.12,1.59-.18,2.42-1.46,20.08-3.02,40.15-4.57,60.22-.16,2.08-.32,4.16-.48,6.24-.2,2.56-.4,5.11-.59,7.67-.09,1.17-.18,2.34-.27,3.54-.09,1.13-.18,2.27-.27,3.43-.18,2.43-.33,4.86-.47,7.29-.07,1.24-.15,2.48-.22,3.76q-.09,1.67-.18,3.37-.38,3.05-2.38,8.05c57.09.33,114.18.66,173,1v-13c.51-3.85,1.08-7.58,1.81-11.38.18-.99.37-1.99.55-3.01.53-2.87,1.08-5.74,1.63-8.62.27-1.44.53-2.88.79-4.32,1.38-7.28,3.17-14.3,5.44-21.36,1.54-6.62.76-12.54-.92-19.04-.18-.73-.36-1.45-.54-2.2-.38-1.56-.77-3.13-1.16-4.69-1.05-4.23-2.07-8.46-3.09-12.7-.21-.88-.42-1.75-.64-2.66-4.68-19.67-9.02-39.58-11.95-59.59-.12-.78-.24-1.56-.37-2.37-1.54-11.81.61-23.37,3.43-34.82.31-1.3.62-2.6.94-3.9,3.75-15.52,7.88-30.94,12.06-46.35.22-.81.44-1.62.66-2.45,1.62-6,3.26-11.99,4.9-17.98.23-.85.46-1.69.7-2.56,2.31-8.45,4.65-16.87,7.29-25.22.38-1.23.77-2.47,1.17-3.74.71-2.24,1.43-4.47,2.18-6.69,2.07-6.54,2.35-10.87.11-17.36-.25-.79-.5-1.57-.75-2.38-.81-2.49-1.68-4.96-2.56-7.43q-.46-1.31-.93-2.64c-2.09-5.89-4.41-11.59-7.11-17.24q-.65-2.31-.07-4.31c6.83-9.65,17.02-17.02,26.42-24,.9-.68,1.79-1.36,2.71-2.06q1.16-.84,2.35-1.69c.65-.47,1.3-.94,1.97-1.42,2.78-1.17,4.11-.78,6.96.17Z"/>
    <path class="cls-3" d="M507,482h1c.15,3.48.23,6.96.31,10.44q.06,1.46.13,2.95c.29,17.27-15.67,30.39-26.88,42.03-3.02,3.08-6.22,5.86-9.56,8.58q-1.31,1.13-2.66,2.28c-38.91,33.18-85.36,52.61-136.03,58.42-1.97.26-3.92.63-5.87,1.02-6.24,1.13-10.15-.08-15.45-3.47-2.4-1.67-4.71-3.43-7-5.25-1.03-.81-2.07-1.62-3.13-2.45-8.58-7.31-14.76-16.14-20.87-25.55-.48-.74-.96-1.47-1.46-2.23-.46-.71-.92-1.43-1.39-2.17q-.62-.97-1.25-1.95-.9-1.65-.9-3.65c.83.03,1.66.06,2.51.09,8.2.29,16.4.56,24.6.8,2.29.07,4.58.13,6.87.21,30.5.91,63.06-2.27,92.02-12.1.84-.28,1.69-.57,2.56-.86,28.1-9.55,54.4-22.75,77.19-41.92.65-.55,1.31-1.09,1.98-1.65.58-.49,1.17-.99,1.77-1.5q1.51-1.07,3.51-1.07.33-.82.67-1.66c1.75-3.06,4.12-5.29,6.64-7.71,3.07-3,6.11-5.97,8.81-9.31q.93-1.14,1.88-2.31Z"/>
    <path class="cls-18" d="M255,404c4.06,1.03,8.05,2.23,12.06,3.44,9.66,2.78,18.85,5.1,28.94,5.56.86.04,1.73.08,2.62.13,20.45.84,39.79-2.39,59.52-7.55,5.86-1.5,11.12-2.56,16.99-.45,7.47,4.87,9.87,11.41,11.88,19.88,1.37,9.37-1.65,17.12-7.19,24.62-10,11.99-23.14,19.99-38.69,22.69q-3.15.25-6.12-.31c-2.65-2.51-4.34-5.03-6.18-8.17-2.58-4.03-5.28-6.32-9.82-7.83-4.4-.23-8.79-.23-13.2-.24-2.16,0-4.33-.04-6.49-.07-1.38,0-2.77-.01-4.15-.02-1.25,0-2.51-.02-3.8-.03-5.55.59-8.66,3.39-12.43,7.29-.65.67-1.3,1.34-1.97,2.03-.65.67-1.3,1.34-1.96,2.04-1.33,1.34-2.66,2.67-4,4-7.95-2.39-13.83-5.47-20-11q-1.14-.97-2.31-1.96c-7.42-6.75-13.25-15.97-14.81-26.04-.29-9.21,1.66-18.4,7.62-25.55,4.37-4.24,7.92-3.52,13.5-2.45Z"/>
    <path class="cls-29" d="M530,518c4.95,2.58,8.87,5.5,13,9.25,2.85,2.49,5.88,4.61,9,6.75l-2,1c.09,1.05.17,2.1.26,3.19.33,4,.65,8,.97,12,.14,1.71.28,3.43.42,5.14.74,9.1,1.42,18.2,1.86,27.32.44,9.04,1.2,18.03,2.06,27.03.14,1.5.28,3.01.42,4.51.34,3.6.68,7.2,1.02,10.8-5.79,3.95-11.66,7.65-17.75,11.12-.8.46-1.6.92-2.42,1.39-2.61,1.5-5.22,2.99-7.83,4.49-1.97,1.13-3.93,2.25-5.9,3.38-5.03,2.88-10.06,5.75-15.1,8.62,2.72,4.32,5.59,7.83,9.25,11.44.48.48.97.96,1.46,1.45,2.75,2.7,5.58,5.26,8.54,7.74,4.75,4.09,9.99,8.78,11.32,15.1-.88,5-3.69,8.21-6.76,12.15-.63.83-1.26,1.67-1.91,2.52-4.66,6.11-9.47,12.1-14.36,18.03-3.12,3.79-6.13,7.62-9.05,11.57-4.03,5.45-8.27,10.69-12.56,15.94-3.53,4.32-7.01,8.67-10.44,13.06-5.58,7.14-11.29,14.18-17.03,21.2-1.29,1.59-2.59,3.18-3.87,4.77-4.14,5.1-8.37,10.12-12.66,15.1-5.66,6.57-11.11,13.28-16.41,20.14-5.42,6.98-11,13.76-16.83,20.41-3.13,3.58-6.2,7.2-9.2,10.9-4.6,5.67-9.38,11.17-14.17,16.67-3.15,3.62-6.27,7.25-9.39,10.89-.49.57-.98,1.14-1.48,1.73-2.52,2.95-5.04,5.89-7.56,8.85-4.47,5.24-8.95,10.46-13.59,15.55-2.93,3.23-5.72,6.53-8.44,9.94-4.63,5.74-9.65,11.06-14.73,16.39-.62.65-1.24,1.31-1.88,1.98-.56.58-1.11,1.16-1.68,1.76q-1.65,1.77-3.15,3.97c-.47.59-.94,1.18-1.42,1.78h-2c-.25.58-.51,1.17-.77,1.77-1.36,2.48-2.87,4.04-4.92,5.98-2.8,2.72-5.45,5.48-8,8.44-.57.65-1.14,1.3-1.73,1.98-1.4,1.62-2.78,3.26-4.15,4.9q-2.44,1.94-5.62,2.06-2.81-1.12-3.99-3.7c-.27-.8-.54-1.6-.82-2.43q12.27-14.26,18.25-20.75c3.93-4.29,7.63-8.72,11.28-13.25,2.87-3.49,5.82-6.91,8.78-10.32.55-.63,1.1-1.27,1.67-1.92,1.12-1.29,2.24-2.57,3.36-3.86,6.89-7.93,13.7-15.92,20.32-24.08,2.69-3.26,5.45-6.45,8.21-9.64,4.53-5.24,8.87-10.6,13.12-16.08,3.71-4.77,7.58-9.41,11.47-14.04,2.77-3.35,5.44-6.76,8.1-10.2,3.18-4.1,6.42-8.05,9.94-11.88,4.57-4.97,8.68-10.24,12.82-15.57,3.01-3.88,6.12-7.68,9.24-11.47,8.09-9.84,16.09-19.75,23.95-29.79,3.46-4.42,6.98-8.8,10.49-13.18,2-2.5,4.01-5.01,6.01-7.51,1.3-1.63,2.61-3.26,3.92-4.88,4.98-6.19,9.84-12.46,14.66-18.76,1.49-1.94,2.98-3.88,4.48-5.82,7.86-10.19,15.45-20.55,22.93-31.02-4.05-4.88-8.33-9.39-12.88-13.81-5.5-5.42-10.47-11.02-15.12-17.19-.72-.86-1.44-1.73-2.18-2.62q-1.82-2.38-2.39-4.95c.82-3.53,2.64-4.33,5.56-6.44,2.52-1.52,5.1-2.92,7.69-4.31,8.15-4.45,16.21-9.04,24.25-13.69,1.14-.66,2.29-1.32,3.47-2q5.87-3.38,11.6-7c-.49-6.46-.99-12.91-1.53-19.36-2.12-25.19-3.82-50.34-3.47-75.64-.62-.31-1.24-.62-1.88-.94l-4.12-2.06v-2Z"/>
    <path class="cls-3" d="M565,260h1v13c1.44-.06,2.89-.12,4.38-.19,12.22.07,22.16,5.74,30.94,14,10.54,11.23,15.05,25.59,14.77,40.8q-.04,1.18-.08,2.39t-.05,2.45c-.9,17.27-8.55,33.57-20.95,45.55-2.55,2.21-5.19,4.14-8,6-.77.51-1.54,1.03-2.34,1.56-11.11,7.04-24.09,11.55-37.38,9.95-.8-.09-1.61-.19-2.43-.29-.61-.07-1.22-.15-1.84-.23.02-.6.05-1.2.07-1.81.25-6.53.49-13.05.73-19.58.09-2.57.19-5.13.29-7.7.55-14.35.98-28.66.95-43.02,0-2.38.01-4.76.02-7.15,0-3.41,0-6.82-.05-10.23-.05-3.15-.05-6.3-.04-9.45-.03-.92-.06-1.84-.09-2.79.06-4,.28-6.33,3.02-9.37,3.82-3.07,7.54-5.18,12.1-6.96q2.33-1.03,4-2.94c1.08-4.69,1.16-9.2,1-14Z"/>
    <path class="cls-29" d="M230,557l2,1q-6.75,4-9,4c-.06,1.13-.11,2.26-.17,3.42-.69,5.42-3.25,9.35-6.14,13.89-.54.87-1.08,1.75-1.64,2.65-1.67,2.69-3.36,5.36-5.05,8.04-.95,1.53-1.89,3.05-2.83,4.58-6.85,11.03-14.05,21.83-21.29,32.61-.38.57-.76,1.14-1.16,1.73-1.05,1.56-2.1,3.12-3.15,4.68q-1.57,2.29-2.58,4.4,1.09.41,2.21.83c2.66,1.12,4.96,2.4,7.41,3.92,4.64,2.85,9.39,5.43,14.22,7.95q2.15,1.3,3.15,3.3.38,3.31,0,7c-1.62,1.78-3.24,3.37-5,5-1.18,1.16-2.35,2.32-3.52,3.49-.63.62-1.25,1.24-1.89,1.88q-7.72,7.56-14.89,15.63-1.69,2-3.77,4.1c-3.16,3.4-5.67,6.16-6.34,10.85.21,3.39.71,6.59,1.36,9.93q.31,1.88.63,3.8c2.82,16.32,7.02,32.38,11.43,48.33.22.79.44,1.58.66,2.4,5.71,20.63,12.29,40.86,19.78,60.91q.51,1.37,1.03,2.77c3.22,8.58,6.46,17.12,10.36,25.42,1.29,2.77,2.51,5.57,3.71,8.38,5.23,12.14,10.73,23.98,17.07,35.57,1.57,2.89,3.12,5.8,4.66,8.71,1.14,2.14,2.28,4.27,3.42,6.41q.78,1.48,1.58,2.99c3.9,7.25,8.24,14.11,13.41,20.53,1.88,2.73,1.74,4.68,1.32,7.91q-3,2-5.41,1.98c-3.55-1.34-5.06-3.63-7.09-6.67-.42-.61-.84-1.21-1.27-1.84-5.68-8.38-10.71-17.18-15.77-25.95-1.25-2.17-2.51-4.33-3.78-6.49-15.3-26.27-26.94-54.65-37.68-83.04-.37-.97-.74-1.94-1.12-2.94q-32-84.31-30.88-120.06c0-.9.01-1.81.02-2.74.26-6.82,1.88-11.53,6.98-16.26h2v-2h2v-2h2v-2q1.36-1.41,3.31-3.06c.72-.61,1.44-1.23,2.18-1.86,3.69-3.06,7.43-6.07,11.18-9.06q2.49-1.98,4.32-5.02c-.66-.25-1.32-.5-2-.76-3.74-1.54-7.37-3.27-11-5.05-.7-.33-1.4-.66-2.12-1-4.35-2.14-7.92-4.22-10.88-8.19-.58-5.53.37-8.4,3.52-12.92q.55-.81,1.11-1.63c1.19-1.74,2.41-3.47,3.62-5.2,1.25-1.82,2.5-3.64,3.74-5.46.83-1.22,1.66-2.43,2.5-3.64,3.44-5.01,6.73-10.11,9.95-15.27,4.31-6.9,8.7-13.74,13.18-20.54,1.8-2.76,3.34-5.2,4.39-8.34q1.7-1.23,3.89-2.41c.79-.43,1.58-.86,2.4-1.31.83-.44,1.66-.89,2.52-1.34.82-.45,1.64-.89,2.49-1.35,2.23-1.21,4.46-2.41,6.7-3.58q1.06-.6,2.14-1.2c.61-.26,1.23-.52,1.86-.8Z"/>
    <path class="cls-5" d="M379.14,218.76c1.04,0,2.09-.02,3.16-.02,2.2-.01,4.4-.02,6.6-.03,2.23-.01,4.45-.03,6.68-.06q30.16-.4,40.42,8.36c4.02,4.16,7.62,8.03,8.38,13.94-.47,3.8-1.74,5.35-4.38,8.06-5.16,2.58-11.81.72-17.14-.5-13.02-2.6-26.41-1.7-39.61-1.5-5.22.08-10.45.14-15.67.19q-1.78.04-3.6.08c-1.11,0-2.21.02-3.35.03-.97.02-1.94.03-2.93.05-3.2-.41-5.05-1.52-7.69-3.34-.58-.39-1.16-.78-1.75-1.19-2.08-3.02-2.35-6.25-2.25-9.81,1.56-5.22,3.42-8.06,8-11,7.42-3.92,16.97-3.18,25.14-3.24Z"/>
    <path class="cls-5" d="M225.15,218.8c.94,0,1.88-.01,2.85-.02,1.98,0,3.95-.02,5.93-.02,3,0,5.99-.04,8.99-.07,1.93,0,3.86-.01,5.79-.02.88-.01,1.77-.02,2.67-.04,7.4.03,14.33,1.24,20.61,5.3,3.46,3.57,4.32,6.56,4.44,11.5-.07,4.14-.21,5.25-2.75,8.69-3.62,2.53-6.14,3-10.44,2.94-.97,0-1.93-.02-2.93-.03-1.05-.01-2.09-.03-3.17-.04-2.24-.02-4.47-.03-6.71-.05-3.51-.03-7.02-.07-10.53-.11-12.46-.16-24.38-.13-36.6,2.48-5.36,1.12-10,1.52-15.24-.37-2.99-2.81-3.53-4.88-4.06-8.94.86-5.52,3.74-9.66,7.79-13.39,10.09-7.31,21.4-7.75,33.37-7.81Z"/>
    <path class="cls-2" d="M156,273h1v121h-1c.06-.85.11-1.69.17-2.56.02-3.73-.18-6.83-1.17-10.44-2.51-2.53-5.11-4.18-8.14-6.04-4.56-3.12-7.1-7.25-9.86-11.96-.39-.65-.77-1.29-1.17-1.96-8.8-16.07-10.63-37.42-5.88-55.04,3.12-8.93,7.25-17.51,15.05-23.19.66-.49,1.32-.98,2-1.48,3.16-2.1,5.15-3.33,9-3.33v-5Z"/>
    <path class="cls-15" d="M305,282c2.86,4.29,2.46,7.96,2,13-.68,3.06-1.72,5.9-2.88,8.81-.31.81-.62,1.61-.93,2.45-2.79,7.13-6.11,13.99-9.47,20.87-2.93,6.05-5.55,12.15-7.91,18.44-.3.79-.61,1.58-.92,2.4-1.38,3.79-2.13,6.19-.89,10.04,5.55,1.16,10.98,1.17,16.62,1.21,2.09.03,4.18.06,6.27.09,3.28.04,6.55.08,9.83.1,3.18.03,6.35.07,9.53.12q1.46,0,2.95,0c8.69.16,14.42,3.1,21.81,7.47l-1,2q-1.96.56-4.53,1c-.95.16-1.89.33-2.87.5-1.02.17-2.05.33-3.1.5-1.05.17-2.09.35-3.17.53-3.11.51-6.22.99-9.33,1.47-.8.12-1.59.25-2.42.38-18.22,2.76-35.05,2.69-52.73-2.83-2.26-.67-4.53-1.15-6.86-1.55v-1h5c-.52-1.11-1.03-2.23-1.56-3.38-3.38-9.24.4-17.73,3.76-26.48.88-2.35,1.71-4.72,2.53-7.09,4.91-14.1,10.82-27.6,17.28-41.05.38-.8.76-1.61,1.15-2.43,3.19-6.63,4.61-7.12,11.85-5.57Z"/>
    <path class="cls-9" d="M574,300c2.95,2.56,4.87,5.18,6.73,8.59.47.87.95,1.73,1.44,2.63.48.9.96,1.8,1.46,2.72q.73,1.34,1.48,2.71,7.16,13.18,5.89,21.35c-3.14,8.51-8.39,15.86-15,22-.6.61-1.2,1.23-1.81,1.86q-5.74,5.59-10.56,5.7-3.62-.56-5.62-2.56c-.55-3.52-.67-5.94,1.27-9.02,1.5-1.8,2.94-3.46,4.73-4.98h2c.23-.52.45-1.03.69-1.56,1.5-2.79,3.29-5.23,5.19-7.75,2.93-4.4,2.71-9.62,2.12-14.68-1.08-2.66-2.35-4.62-4-7-4.61.5-7,2.28-10.5,5.25-.92.77-1.84,1.54-2.78,2.33q-2.78,2.42-5.44,5.22-2.28,2.2-4.28,2.2-1.46-17.6,1.58-22.61c2.37-1.8,4.76-3.07,7.42-4.39,2.07-1.47,4.13-2.95,6.19-4.44,4.1-2.89,6.75-4.39,11.81-3.56Z"/>
    <path class="cls-25" d="M404.19,270.38c5.08,2.94,7.9,7.14,9.81,12.62.96,7.7,1.02,14.2-3,21-3.87,4.62-7.94,7.34-13.98,8.32-5.24.3-8.92-1.09-13.02-4.32-5.39-5.39-7.04-10.45-7.31-17.94.16-5.68.99-10.54,4.93-14.82,6.84-6.08,13.71-8.47,22.57-4.87Z"/>
    <path class="cls-12" d="M246,272c5.33,5.16,8.27,10.18,9.02,17.69-.06,6.62-1.79,12.55-6.39,17.37-4.56,3.98-8.34,5.44-14.51,5.25-5.21-.77-9.5-3.29-12.99-7.19-4.71-6.93-5.16-14.21-3.73-22.37,1.74-5.76,5.66-9.48,10.61-12.76,6.36-2.14,12.45-1.74,18,2Z"/>
    <path class="cls-14" d="M256,422c5.27-.55,9.26.55,14.19,2.31,27.3,9.09,55.85,6.4,83.45.28,1.01-.22,2.03-.44,3.07-.66.9-.2,1.8-.4,2.73-.61,2.8-.34,4.86-.07,7.56.69q1,1,1.06,4.56c-.02,1.13-.04,2.27-.06,3.44-5.19,2.41-10.15,3.92-15.75,5.06-.83.17-1.66.34-2.52.51-29.73,5.82-67.4,8.11-94.73-7.58q-1-2.5-1-5c.66-.99,1.32-1.98,2-3Z"/>
    <path class="cls-17" d="M782,986h1c.66,6.6,1.32,13.2,2,20h-509c.33-.66.66-1.32,1-2q152.95-.5,309-1v2c1.15-.33,2.3-.65,3.49-.99,4.23-1.05,8.3-1.27,12.65-1.22q1.17,0,2.36,0c2.59.01,5.17.04,7.76.06,1.86.01,3.73.02,5.59.03,5.04.03,10.09.06,15.13.11,5.28.04,10.55.07,15.83.1,9.98.06,19.97.13,29.95.2,11.37.08,22.74.15,34.11.22,23.38.15,46.76.31,70.14.47-.33-5.94-.66-11.88-1-18Z"/>
    <path class="cls-11" d="M1,1002l2,2c2.56.19,5.01.25,7.57.23q1.17,0,2.37,0c2.59,0,5.17-.02,7.76-.03,1.79,0,3.58,0,5.37,0,4.72,0,9.44-.03,14.15-.05,4.81-.02,9.63-.03,14.44-.04,9.45-.02,18.89-.06,28.34-.1.33-.66.66-1.32,1-2q.5,1.49,1,3c1-.16,2-.32,3.03-.49,3.84-.55,7.61-.65,11.49-.67.72,0,1.45,0,2.2-.01,2.41-.02,4.82-.02,7.23-.03,1.74,0,3.47-.02,5.21-.03,4.7-.03,9.4-.05,14.09-.07,4.91-.02,9.83-.05,14.74-.08,9.3-.05,18.6-.09,27.9-.14,10.59-.05,21.18-.1,31.77-.16,21.78-.11,43.56-.22,65.34-.32v3H0l1-4Z"/>
    <path class="cls-28" d="M361,646c4.78,2.65,8.92,5.99,13.19,9.38,6.28,4.92,12.6,9.76,19.06,14.44.74.54,1.48,1.07,2.24,1.62,3.52,2.52,7.06,4.94,10.75,7.2.66.4,1.31.81,1.99,1.22,1.77,1.07,3.55,2.11,5.34,3.14q2.43,2,2.8,4.75-.18,1.11-.37,2.25c-4.39.71-6.76-.23-10.29-2.68-1.6-1.2-3.2-2.41-4.78-3.64-.84-.63-1.68-1.27-2.54-1.92-6.03-4.6-11.88-9.41-17.61-14.37-3.11-2.67-6.32-5.19-9.57-7.69-4.12-3.17-8.16-6.45-12.21-9.7l2-4Z"/>
    <path class="cls-7" d="M278,645l3,2c-2.48,4.86-5.1,8.25-9.02,12.01-6.94,7-12.74,15.22-18.71,23.05-2.05,2.68-4.14,5.32-6.26,7.95q-1.06-9.16,1.24-13.16c1.83-2.05,3.77-3.94,5.76-5.84,1.47-1.64,2.93-3.28,4.38-4.94,3.71-4.13,7.59-8.05,11.54-11.95,2.87-2.91,5.48-5.98,8.09-9.12Z"/>
    <path class="cls-22" d="M338,681c-.16.56-.32,1.11-.48,1.69-.56,2.47-.73,4.77-.84,7.3q-.06,1.4-.13,2.83c-.04.97-.08,1.94-.12,2.93q-.06,1.48-.13,2.98c-.11,2.42-.21,4.85-.31,7.27h-1q-.49-10.4-1-21c-9.5-.25-17.56-.06-26.82,2.34-3.47.71-6.65.69-10.18.66q-.99.49-2,1c-.33-2.97-.66-5.94-1-9,.33.66.66,1.32,1,2,2.29-.31,4.58-.62,6.88-.94q1.91-.26,3.87-.53c10.83-1.78,21.2-1.93,32.26.46Z"/>
    <path class="cls-30" d="M276,561q1.09.05,2.21.09c22.93.92,45.84,1.02,68.79.91v1c-6.33.94-12.5,1.15-18.89,1.13-1.03,0-2.06,0-3.12,0-2.17,0-4.33,0-6.5,0-3.28,0-6.57,0-9.85,0-2.12,0-4.23,0-6.35,0-.97,0-1.94,0-2.93,0-6.5-.02-12.9-.45-19.36-1.14-.33.66-.66,1.32-1,2q-2-2-3-4Z"/>
    <path class="cls-13" d="M387,271l2,1c-.47.33-.94.66-1.43,1-5.17,3.95-7.5,7.57-8.57,14-.21,3.68-.19,7.32,0,11-3.14-4.72-2.63-9.76-1.57-15.22,1.71-5.49,4.98-8.46,9.57-11.78Z"/>
    <path class="cls-21" d="M254,812h2c.33,2.97.66,5.94,1,9h2v10c-2.74-2.74-2.85-5.16-3.62-8.94-.26-1.25-.52-2.49-.79-3.78q-.59-3.29-.59-6.29Z"/>
    <path class="cls-23" d="M243,405l2,1c-.45.4-.9.81-1.37,1.22-1.82,1.98-2.66,3.74-3.69,6.21-1.23,2.91-2.5,5.75-3.94,8.56.03-7.37,2.13-11.53,7-17Z"/>
    <path class="cls-6" d="M268,787c1.43,3.79.51,6.07-.94,9.75-.38.98-.76,1.97-1.15,2.98-.3.75-.6,1.5-.91,2.27h-2c.99-3.96,1.98-7.92,3-12h2v-3Z"/>
    <path class="cls-27" d="M262,804h1q1.29,8.57,0,12h-3c.66-3.96,1.32-7.92,2-12Z"/>
    <path class="cls-19" d="M413,708l1,2c-.97,1.68-1.98,3.35-3,5-.14.7-.29,1.4-.44,2.12-.79,2.62-2.32,3.43-4.56,4.88.56-3.99,1.76-6.53,4.06-9.81.55-.79,1.1-1.58,1.66-2.39q.63-.89,1.28-1.79Z"/>
    <path class="cls-10" d="M154,362h1v16h-4c.66-.66,1.32-1.32,2-2,.3-2.37.5-4.74.62-7.12.07-1.28.15-2.56.23-3.88.05-.99.1-1.97.15-2.99Z"/>
    <path class="cls-24" d="M124,619h3c-1.37,3.16-1.99,3.99-5,6q.88-4.88,2-6Z"/>
    <path class="cls-8" d="M153,278c.99.33,1.98.66,3,1-.33,2.31-.66,4.62-1,7-.27-.62-.54-1.24-.81-1.88q-1.14-2.42-4.19-4.12c.99-.66,1.98-1.32,3-2Z"/>
  </g>
</svg>