<?xml version="1.0" encoding="UTF-8"?>
<svg id="Layer_2" data-name="Layer 2" xmlns="http://www.w3.org/2000/svg" viewBox="0 0 668.65 1308.14">
  <defs>
    <style>
      .cls-1 {
        fill: #053f61;
      }

      .cls-2 {
        fill: #07365a;
      }

      .cls-3 {
        fill: #0d1e27;
      }

      .cls-4 {
        fill: #271911;
      }

      .cls-5 {
        fill: #0f446b;
      }

      .cls-6 {
        fill: #005489;
      }

      .cls-7 {
        fill: #14364b;
      }

      .cls-8 {
        fill: #f9ae6e;
      }

      .cls-9 {
        fill: #053e61;
      }

      .cls-10 {
        fill: #ef9557;
      }

      .cls-11 {
        fill: #093c79;
      }

      .cls-12 {
        fill: #261910;
      }

      .cls-13 {
        fill: #281a11;
      }

      .cls-14 {
        fill: #0f2733;
      }

      .cls-15 {
        fill: #0e1e26;
      }

      .cls-16 {
        fill: #fbb171;
      }

      .cls-17 {
        fill: #0d1e26;
      }

      .cls-18 {
        fill: #241710;
      }

      .cls-19 {
        fill: #f59643;
      }

      .cls-20 {
        fill: #faaf6f;
      }

      .cls-21 {
        fill: #ea8648;
      }

      .cls-22 {
        fill: #ef8a46;
      }

      .cls-23 {
        fill: #ef843b;
      }

      .cls-24 {
        fill: #063a56;
      }

      .cls-25 {
        fill: #eb9359;
      }

      .cls-26 {
        fill: #ec8f4a;
      }

      .cls-27 {
        fill: #f6ba76;
      }

      .cls-28 {
        fill: #ee7e32;
      }

      .cls-29 {
        fill: #053f63;
      }

      .cls-30 {
        fill: #eebf7f;
      }

      .cls-31 {
        fill: #f1a868;
      }

      .cls-32 {
        fill: #ee8f52;
      }

      .cls-33 {
        fill: #f7a857;
      }

      .cls-34 {
        fill: #1a110b;
      }

      .cls-35 {
        fill: #ed8f52;
      }

      .cls-36 {
        fill: #f5aa68;
      }

      .cls-37 {
        fill: #ec7c32;
      }

      .cls-38 {
        fill: #faaf6e;
      }

      .cls-39 {
        fill: #271910;
      }
    </style>
  </defs>
  <g id="Layer_1-2" data-name="Layer 1">
    <path class="cls-6" d="M342.23,0c6.42,1.28,12.31,3.04,18.38,5.5.86.35,1.72.7,2.61,1.06,14.79,6.13,28.33,13.69,41.02,23.44.6.46,1.19.91,1.81,1.38,2.86,2.18,5.71,4.38,8.55,6.59,1.83,1.41,3.72,2.75,5.64,4.03-.15-.58-.3-1.16-.46-1.76-.69-2.64-1.36-5.29-2.04-7.93q-.36-1.37-.72-2.76l-.68-2.69-.63-2.46c-.48-2.52-.54-4.84-.46-7.4,7.71,3.52,13.53,8.76,19.54,14.59,1.35,1.3,2.72,2.58,4.1,3.86,16.46,15.66,31.94,40.37,33.36,63.55.66.04,1.32.08,2,.12,8.36,2.44,15.16,10.07,19.48,17.38,6.36,12.8,5.8,26.78,5.72,40.71,0,1.82,0,3.64,0,5.46,0,4.75-.03,9.49-.05,14.24-.02,4.86-.03,9.72-.04,14.58-.02,9.5-.06,19.01-.1,28.51-1.11.45-2.21.9-3.36,1.36-3.96,1.78-5.4,2.98-7.64,6.64-1.62,4.8-2.26,9-2.29,14.05,0,.67-.01,1.34-.02,2.02-.01,1.44-.02,2.88-.03,4.32,0,2.3-.03,4.61-.05,6.91-.05,4.92-.08,9.83-.11,14.75q-.33,51.37-4.75,71.25c-.22,1-.44,2-.66,3.02-4.71,20.78-13.32,40.25-27.09,56.66q-1.06,1.27-2.14,2.56c-23.13,26.62-55.25,44.79-89.86,51.44q-1.16.22-2.35.45c-36.22,6.58-76.04,4.27-109.65-11.45.66,12.95,5.67,23.9,14.96,32.89,18.38,15.65,46.22,17.52,69.23,17.42.82,0,1.63,0,2.47,0,11.98-.05,23.66-.36,35.34-3.31q1.1-.27,2.21-.55c26.53-6.84,50.35-20.55,64.79-44.45,2.29-4.21,4.18-8.57,6-13,11.43,2.68,22.56,5.94,33.69,9.69.79.26,1.57.53,2.38.8,55.38,18.62,96.29,47.5,122.93,100.26,1.35,2.74,2.68,5.49,4,8.25.35.73.7,1.46,1.06,2.22,9.11,19.18,16.13,39.18,22.94,59.27.45,1.34.91,2.68,1.37,4.01.64,1.86,1.26,3.73,1.89,5.6.36,1.07.72,2.14,1.09,3.24q.65,2.67-.35,5.67c-2.3,1.39-4.52,2.59-6.94,3.75-.72.35-1.44.7-2.18,1.06-33.5,15.99-71.9,24.25-108.88,26.19.06.81.12,1.62.18,2.46.85,11.98,1.32,23.97,1.79,35.98.09,2.25.18,4.5.26,6.75.18,4.69.37,9.38.55,14.08.23,5.97.47,11.94.7,17.92.18,4.64.36,9.28.54,13.92.09,2.2.17,4.4.26,6.6.48,12.11.84,24.19.71,36.31q-13.5,3-18,3c.03,1.11.05,2.22.08,3.36.64,26.92,1.17,53.84,1.59,80.77.08,4.95.16,9.9.23,14.85.13,8.34.26,16.68.39,25.01.13,8.35.26,16.71.4,25.06.2,12.31.39,24.61.58,36.92.02,1.01.03,2.01.05,3.05.36,22.84.69,45.68.95,68.53.02,1.9.04,3.8.07,5.7.08,7.18.16,14.36.24,21.54.09,9.1.2,18.2.35,27.3.04,2.53.07,5.06.1,7.6.04,3.25.1,6.51.18,9.76,0,.92,0,1.83.01,2.78.14,4.44.22,6.14,3.28,9.56.82.73,1.64,1.46,2.49,2.2q.63,2.36.65,4.82c.02.93.03,1.86.05,2.81q-.02,1.48-.03,3c0,1.03,0,2.05.01,3.11,0,2.17,0,4.33-.03,6.5-.03,3.32,0,6.63.03,9.95,0,2.11,0,4.21-.02,6.32.01.99.02,1.98.03,3.01q-.12,6.87-3.11,10.1c-3.25,1.75-6,2.55-9.58,3.4,2.82,7.43,6.19,14.38,9.94,21.38,9.52,17.86,22.28,42.26,17.46,63.25-4.24,9.76-15.06,14.64-24.4,18.38-34.84,11.8-79.93,11.21-113.38-4.62-7.58-3.85-13.14-8.87-18.62-15.38-.47-.52-.95-1.04-1.43-1.57-6.35-7.01-9.76-13.08-9.35-22.78.2-2.56.48-5.1.78-7.65.12-1.05.23-2.09.36-3.17,1.89-16.15,4.89-32.02,8.64-47.83-.95-.63-1.91-1.26-2.89-1.91-4.15-2.79-6.1-4.2-7.11-9.09-.14-1.33-.24-2.66-.32-3.99-.04-.78-.08-1.55-.13-2.36-.04-.83-.08-1.67-.12-2.53q-.06-1.3-.12-2.63c-.3-6.85-.45-13.7-.5-20.56-.01-.95-.03-1.89-.04-2.86q0-1.32,0-2.67c0-.78,0-1.56-.01-2.36q.24-2.04,2.24-5.04h2c-1.49-20.76-3.08-41.52-4.94-62.25-.08-.94-.17-1.88-.26-2.85-.83-9.27-1.68-18.53-2.54-27.79-2.26-24.45-4.35-48.92-6.33-73.39-1.03-12.77-2.08-25.54-3.19-38.3-.18-2.06-.36-4.12-.53-6.17-.56-6.49-1.12-12.99-1.69-19.48-.2-2.34-.4-4.68-.61-7.02-.09-1.05-.19-2.09-.28-3.17-.53-6.21-.75-12.34-.63-18.57-.72.01-1.45.02-2.2.04q-1.45.01-2.93.03c-.95.01-1.9.02-2.88.04-3.08-.1-5.97-.53-8.99-1.1-.01.6-.03,1.2-.04,1.82-.69,26.68-2.18,53.32-3.58,79.97-.32,6.02-.63,12.04-.94,18.07-2.55,49.07-5.21,98.12-8.44,147.14q1.21.46,2.44.94,2.56,1.06,3.56,2.06c.1,2.04.13,4.09.13,6.13,0,1.27,0,2.55,0,3.86,0,1.38,0,2.75-.01,4.13q0,1.03,0,2.08c-.02,4.6-.06,9.2-.12,13.8,0,.92-.01,1.84-.02,2.79q-.15,11.89-3.23,16.08c-2.83,2.18-4.32,2.58-7.75,3.12.2.62.4,1.24.61,1.87,3.88,12.01,7.41,23.49,8.39,36.13.11,1.19.22,2.38.33,3.6.29,3.47.49,6.93.67,10.4.09,1.09.18,2.18.27,3.3.26,4.89.42,8.64-2.64,12.64-9.68,9.32-26.47,13.68-39.61,14.32-6.71.59-12.43,2.87-18.64,5.36-24.72,9.51-51.3,17.42-78.01,17.58q-1.19.01-2.4.02-60.03.41-79.96-15.22-.88-.59-1.78-1.19c-2.03-3.01-1.2-6.2-.72-9.62.1-.76.2-1.51.3-2.29,3.42-23.22,17.93-40.23,36.2-53.89,11.06-8.08,22.39-15.74,34-23-.56-.41-1.11-.82-1.69-1.25-.76-.58-1.53-1.16-2.31-1.75-.86-.57-1.72-1.14-2.6-1.73q-2.4-2.27-3.06-5.12c-.02-1.09-.03-2.17-.05-3.29-.03-1.21-.06-2.42-.09-3.67,0-1.28-.01-2.56-.02-3.88-.02-1.3-.04-2.6-.07-3.95-.04-2.6-.07-5.19-.09-7.79-.03-3.06-.09-6.11-.18-9.16q-.24-10.83,1.48-13.34,1.67-1.07,4.67-1.07v-326c-3.3-.33-6.6-.66-10-1-2.06-.46-4.1-.97-6.12-1.56-.93-.27-1.86-.54-2.82-.82q-1.02-.31-2.05-.62c.49-16.05,1.03-32.1,1.65-48.15.1-2.56.2-5.13.3-7.69.07-1.74.13-3.47.2-5.21.03-.86.07-1.73.1-2.62.17-4.39.34-8.77.52-13.16.87-21.74,1.46-43.41,1.23-65.17-.66-.1-1.31-.21-1.99-.32-25.92-4.14-52.67-9.46-74.01-25.68-.95-.59-1.9-1.19-2.88-1.8q-2.12-2.2-2.2-5.16c1.29-5.69,3.41-11.19,5.39-16.66.44-1.23.89-2.45,1.34-3.72,14.17-38.92,30.37-78.3,59.35-108.66.6-.66,1.19-1.32,1.8-2,19.36-20.65,47.68-33.11,74.01-41.88.69-.23,1.37-.46,2.08-.69,8.31-2.76,16.64-5.18,25.16-7.18q3.25-.57,5.95-2.25c-.63-.38-1.26-.76-1.91-1.14-31.59-19.43-55.53-47.54-64.6-83.94-2.66-11.41-3.64-22.6-3.61-34.29,0-1.07,0-2.15,0-3.25,0-2.27,0-4.54,0-6.81,0-3.37,0-6.74,0-10.11,0-11.23.16-22.43.61-33.65.75-20.06,1.13-40.12,1.42-60.19.09-6.42.2-12.83.34-19.25.14-6.3.24-12.59.31-18.89.03-2.37.08-4.74.15-7.12q.46-17.29-6.72-32.58c-7.57-10.72-8-24.18-6.97-36.79,1.34-6.33,3.22-10.59,8-15,.45.42.9.85,1.36,1.29,5.46,4.98,11.32,8.9,17.64,12.71-.32-1.16-.64-2.31-.98-3.5-4.57-18.4,1.22-39.33,10.66-55.25q1.14-1.61,2.31-3.25h2q1.45,1.47,3.12,3.5c12.56,14.63,27.69,24.91,44.88,33.5-.33-.66-.66-1.32-1-2-.85-15.27.6-30.58,4.44-45.38.21-.79.41-1.58.62-2.4,1.15-4.16,2.48-7.62,4.94-11.23,6.77,1.92,13.31,4.18,19.84,6.81.91.36,1.82.73,2.76,1.1,2.93,1.17,5.86,2.35,8.78,3.53,1,.4,2,.8,3.03,1.21,14.45,5.8,28.81,11.74,43.08,17.97,5.13,2.24,10.31,4.34,15.52,6.38-.24-1.06-.48-2.13-.73-3.23-.9-3.96-1.79-7.92-2.68-11.88-.39-1.71-.77-3.42-1.16-5.14-.56-2.46-1.12-4.93-1.67-7.39-.17-.76-.35-1.52-.53-2.31-.83-3.75-1.43-7.21-1.22-11.06Z"/>
    <path class="cls-14" d="M503.23,801c1.19,7.76,1.32,15.54,1.52,23.37.04,1.55.08,3.1.12,4.65.47,18.06.75,36.13,1.03,54.19.08,4.97.16,9.95.23,14.92.13,8.39.26,16.78.39,25.17.13,8.42.26,16.83.4,25.25.2,12.37.39,24.73.58,37.1q.02,1.52.05,3.07c.36,22.95.69,45.91.95,68.86.02,1.9.04,3.8.07,5.7q.16,14.36.24,21.53c.09,9.09.2,18.18.35,27.28.04,2.53.07,5.06.1,7.59.04,3.25.1,6.51.18,9.76,0,.92,0,1.83.01,2.78.14,4.44.22,6.15,3.28,9.56.82.73,1.64,1.46,2.49,2.2q.63,2.36.65,4.82c.02.93.03,1.86.05,2.81-.01.99-.02,1.98-.03,3,0,1.03,0,2.05.01,3.11,0,2.17,0,4.33-.03,6.5-.03,3.32,0,6.63.03,9.95,0,2.11,0,4.21-.02,6.32.01.99.02,1.98.03,3.01q-.12,6.87-3.11,10.1c-3.25,1.75-6,2.55-9.58,3.4,2.82,7.43,6.19,14.38,9.94,21.38,9.52,17.86,22.28,42.26,17.46,63.25-4.24,9.76-15.06,14.64-24.4,18.38-34.84,11.8-79.93,11.21-113.38-4.62-7.58-3.85-13.14-8.87-18.62-15.38-.47-.52-.95-1.04-1.43-1.57-6.35-7.01-9.76-13.08-9.35-22.78.2-2.56.48-5.1.78-7.65.12-1.05.23-2.09.36-3.17,1.89-16.15,4.89-32.02,8.64-47.83-.95-.63-1.91-1.26-2.89-1.91-4.15-2.79-6.1-4.2-7.11-9.09-.14-1.33-.24-2.66-.32-3.99-.04-.78-.08-1.55-.13-2.36q-.06-1.25-.12-2.53t-.12-2.63c-.3-6.85-.45-13.7-.5-20.56-.01-.95-.03-1.89-.04-2.86q0-1.32,0-2.67c0-.78,0-1.56-.01-2.36q.24-2.04,2.24-5.04h2c-1.49-20.76-3.08-41.52-4.94-62.25-.08-.94-.17-1.88-.26-2.85-.83-9.27-1.68-18.53-2.54-27.79-2.26-24.45-4.35-48.92-6.33-73.39-1.03-12.77-2.08-25.54-3.19-38.3-.18-2.06-.36-4.12-.53-6.17-.56-6.49-1.12-12.99-1.69-19.48-.2-2.34-.4-4.68-.61-7.02-.09-1.05-.19-2.09-.28-3.17-.53-6.21-.75-12.34-.63-18.57-.72.01-1.45.02-2.2.04-.97,0-1.93.02-2.93.03-.95.01-1.9.02-2.88.04-3.08-.1-5.97-.53-8.99-1.1-.01.6-.03,1.2-.04,1.82-.69,26.68-2.18,53.32-3.58,79.97-.32,6.02-.63,12.04-.94,18.07-2.55,49.07-5.21,98.12-8.44,147.14.8.31,1.61.62,2.44.94q2.56,1.06,3.56,2.06c.1,2.04.13,4.09.13,6.13,0,1.27,0,2.55,0,3.86,0,1.38,0,2.75-.01,4.13q0,1.03,0,2.08c-.02,4.6-.06,9.2-.12,13.8,0,.92-.01,1.84-.02,2.79q-.15,11.89-3.23,16.08c-2.83,2.18-4.32,2.58-7.75,3.12.2.62.4,1.24.61,1.87,3.88,12.01,7.41,23.49,8.39,36.13.11,1.19.22,2.38.33,3.6.29,3.47.49,6.93.67,10.4.09,1.09.18,2.18.27,3.3.26,4.89.42,8.64-2.64,12.64-9.68,9.32-26.47,13.68-39.61,14.32-6.71.59-12.43,2.87-18.64,5.36-24.72,9.51-51.3,17.42-78.01,17.58-.79,0-1.59.01-2.4.02q-60.03.41-79.96-15.22c-.59-.39-1.17-.78-1.78-1.19-2.03-3.01-1.2-6.2-.72-9.62.1-.76.2-1.51.3-2.29,3.42-23.22,17.93-40.23,36.2-53.89,11.06-8.08,22.39-15.74,34-23-.56-.41-1.11-.83-1.69-1.25-.76-.58-1.53-1.15-2.31-1.75q-1.29-.85-2.6-1.73-2.4-2.27-3.06-5.12c-.02-1.09-.03-2.17-.05-3.29q-.04-1.81-.09-3.67c0-1.28-.01-2.56-.02-3.88-.02-1.3-.04-2.6-.07-3.95-.04-2.6-.07-5.19-.09-7.79-.03-3.06-.09-6.11-.18-9.16q-.24-10.83,1.48-13.34,1.67-1.07,4.67-1.07c0-.62,0-1.25,0-1.89-.02-37.02-.04-74.04-.05-111.06,0-4.46,0-8.92,0-13.37,0-.89,0-1.77,0-2.69,0-14.32-.01-28.63-.02-42.95,0-14.72-.01-29.44-.02-44.16,0-9.06,0-18.12-.01-27.19,0-6.24,0-12.48,0-18.71,0-3.58,0-7.17,0-10.75-.03-17.44.3-34.82,1.12-52.23,8.79,1.04,17.55,2.21,26.3,3.59,20.07,3.15,40.09,5.99,60.33,7.79.88.08,1.76.16,2.67.24,5.9.52,11.8.98,17.71,1.39q1.14.08,2.3.16c19.11,1.28,38.31,1.09,57.45,1.09.89,0,1.78,0,2.7,0,25.84,0,51.55-.11,77.26-2.99,2.42-.27,4.85-.53,7.28-.79,26.17-2.84,52.33-6.41,78.24-11.04q2.77-.42,6.77-.42Z"/>
    <path class="cls-13" d="M342.23,0c6.42,1.28,12.31,3.04,18.38,5.5.86.35,1.72.7,2.61,1.06,14.79,6.13,28.33,13.69,41.02,23.44.6.46,1.19.91,1.81,1.38,2.86,2.18,5.71,4.38,8.55,6.59,1.83,1.41,3.72,2.75,5.64,4.03-.15-.58-.3-1.16-.46-1.76-.69-2.64-1.36-5.29-2.04-7.93q-.36-1.37-.72-2.76l-.68-2.69-.63-2.46c-.48-2.52-.54-4.84-.46-7.4,7.71,3.52,13.53,8.76,19.54,14.59,1.35,1.3,2.72,2.58,4.1,3.86,16.46,15.66,31.94,40.37,33.36,63.55.66.04,1.32.08,2,.12,8.36,2.44,15.16,10.07,19.48,17.38,6.36,12.8,5.8,26.78,5.72,40.71,0,1.82,0,3.64,0,5.46,0,4.75-.03,9.49-.05,14.24-.02,4.86-.03,9.72-.04,14.58-.02,9.5-.06,19.01-.1,28.51-1.11.45-2.21.9-3.36,1.36-3.96,1.78-5.4,2.98-7.64,6.64-1.62,4.8-2.26,9-2.29,14.05,0,.67-.01,1.34-.02,2.02-.01,1.44-.02,2.88-.03,4.32,0,2.3-.03,4.61-.05,6.91-.05,4.92-.08,9.83-.11,14.75q-.33,51.37-4.75,71.25c-.22,1-.44,2-.66,3.02-4.71,20.78-13.32,40.25-27.09,56.66q-1.06,1.27-2.14,2.56c-23.13,26.62-55.25,44.79-89.86,51.44-.78.15-1.55.3-2.35.45-37.79,6.87-86.15,5.35-119.34-16.27-1.44-1.05-2.88-2.12-4.31-3.19-1.06-.73-2.13-1.46-3.23-2.21-8.24-5.66-15.59-11.85-22.77-18.79-.79-.74-1.58-1.48-2.39-2.24-22.83-21.87-35.6-52.99-36.7-84.47-.04-2.89-.04-5.77-.04-8.66,0-1.07,0-2.15,0-3.25,0-2.27,0-4.54,0-6.81,0-3.37,0-6.74,0-10.11,0-11.23.16-22.43.61-33.65.75-20.06,1.13-40.12,1.42-60.19.09-6.42.2-12.83.34-19.25.14-6.3.24-12.59.31-18.89.03-2.37.08-4.74.15-7.12q.46-17.29-6.72-32.58c-7.57-10.72-8-24.18-6.97-36.79,1.34-6.33,3.22-10.59,8-15,.45.42.9.85,1.36,1.29,5.46,4.98,11.32,8.9,17.64,12.71-.32-1.16-.64-2.31-.98-3.5-4.57-18.4,1.22-39.33,10.66-55.25.76-1.07,1.53-2.15,2.31-3.25h2q1.45,1.47,3.12,3.5c12.56,14.63,27.69,24.91,44.88,33.5-.33-.66-.66-1.32-1-2-.85-15.27.6-30.58,4.44-45.38.21-.79.41-1.58.62-2.4,1.15-4.16,2.48-7.62,4.94-11.23,6.77,1.92,13.31,4.18,19.84,6.81q1.36.54,2.76,1.1c2.93,1.17,5.86,2.35,8.78,3.53,1,.4,2,.8,3.03,1.21,14.45,5.8,28.81,11.74,43.08,17.97,5.13,2.24,10.31,4.34,15.52,6.38-.24-1.06-.48-2.13-.73-3.23-.9-3.96-1.79-7.92-2.68-11.88-.39-1.71-.77-3.42-1.16-5.14-.56-2.46-1.12-4.93-1.67-7.39-.17-.76-.35-1.52-.53-2.31-.83-3.75-1.43-7.21-1.22-11.06Z"/>
    <path class="cls-16" d="M203.23,126c5.18.69,9.88,2.18,14.81,3.81,34.71,11.12,71,14.14,107.19,10.81.69-.06,1.38-.13,2.1-.19,12.54-1.16,24.93-2.74,37.26-5.38q56.44-12.08,77.39,1.29c8.76,6.44,12.06,15.3,13.86,25.7.63,4.65.69,9.24.68,13.93q0,1.55.02,3.14c.01,3.39.01,6.78.01,10.18,0,2.38,0,4.77.01,7.15,0,4.99,0,9.98,0,14.97,0,6.35.01,12.7.03,19.05.01,4.93.02,9.85.01,14.78,0,2.34,0,4.68.02,7.01.1,27.15-2.76,51.59-21.38,72.75q-1.02,1.16-2.05,2.34c-7.53,8.06-17.26,14.66-27.95,17.66-2,.04-4,.04-6,0-.42-.92-.85-1.84-1.29-2.78-5.82-12.31-11.85-20.48-24.71-26.22-8.35-2.88-17.18-4.69-26-5-.65-.03-1.3-.06-1.98-.09-2.26-.1-4.52-.16-6.77-.22-.72-.03-1.44-.06-2.19-.09-5.31-.06-7.84,1.36-12.06,4.4-11.73,4.19-23.64,2.49-35-2-.62-.37-1.24-.73-1.88-1.11-3.24-1.35-6.48-1.23-9.94-1.2-.75,0-1.5,0-2.27.01-15.16.3-30.34,4.08-41.92,14.3-4.41,5.15-7.65,10.65-10,17-11.34-3.34-19.05-11.03-25-21-7.1-13.1-10.17-26.48-10.13-41.31,0-.88,0-1.77,0-2.68,0-1.87,0-3.74,0-5.6,0-2.8,0-5.61,0-8.41,0-9.32.23-18.55.89-27.85.5-7.58.55-15.19.69-22.79.09-4.87.2-9.73.31-14.6q.03-1.42.06-2.87c.06-2.63.12-5.26.18-7.89.02-.71.03-1.41.05-2.14q.96-41.7,12.95-58.86Z"/>
    <path class="cls-8" d="M624.23,637c2.38,2.38,2.64,3.78,3.45,7.02.27,1.06.54,2.13.81,3.23q.43,1.77.87,3.57t.92,3.77c11,45.24,19.69,91.32,24.9,137.6.31,2.71.62,5.42.93,8.13.08.66.15,1.32.23,2,1.31,11.11,3.64,21.76,6.38,32.59,7.92,31.29,9.77,66.1-6.25,95.32-1.65,2.68-3.39,5.24-5.23,7.78-.4.59-.79,1.18-1.2,1.79-3.81,5.22-10.02,9.41-16.35,10.75-.83.11-1.66.22-2.51.34-5.36.79-8.11,3.46-11.83,7.25-3.3,2.94-6.18,3.79-10.54,4.19-4.61-.4-7.81-2.01-11.5-4.75q-2.36-.9-5.38,1.31c-.6.38-1.21.76-1.83,1.15-3.09,1.62-5.46,1.47-8.86.98-4.26-2.09-7.19-4.63-9.38-8.91-2.42-8.16,1.55-17.43,4.32-25.03,3.8-10.49,6.41-20.59,6.19-31.81-.02-1.19-.04-2.38-.05-3.61-.02-.87-.05-1.74-.07-2.64-.99.33-1.98.66-3,1-.79,2.54-1.4,4.97-1.94,7.56-1.97,8.56-4.05,15.51-11.06,21.44-3.72,1.24-7.13,1.53-11,1-3.8-2.11-6-4.69-7.49-8.81-2.66-11.5.79-23.86,2.94-35.19.53-2.9,1.01-5.8,1.46-8.71,2.02-12.59,4.37-27.16,11.87-37.82,2.79-5.65-.44-13.31-2.23-19.04-.25-.82-.5-1.63-.75-2.48-.82-2.69-1.65-5.39-2.48-8.08-.59-1.91-1.17-3.83-1.76-5.74-1.23-4.02-2.46-8.03-3.69-12.05-1.81-5.89-3.6-11.78-5.39-17.68-4.64-15.31-9.3-30.63-14.04-45.91-.29-.94-.58-1.87-.88-2.84-1.37-4.41-2.74-8.82-4.12-13.22-2.69-8.61-5.3-17.24-7.81-25.9-.26-.89-.53-1.79-.8-2.71q-.36-1.25-.73-2.53c-.21-.74-.43-1.47-.65-2.23q-.46-2.07-.46-6.07c6.38-1,12.75-1.98,19.16-2.82,16.93-2.27,33.33-5.83,49.84-10.18.86-.22,1.72-.45,2.6-.68,11.85-3.12,23.1-7.6,34.4-12.32Z"/>
    <path class="cls-20" d="M76.23,633c1.02.51,2.04,1.02,3.09,1.54,20.48,10.04,42.11,16.17,64.75,19.1q2.17.36,3.17,1.36c.28,3.84.19,7.71.19,11.56,0,1.26,0,2.52,0,3.82-.08,23.55-1.26,47.09-2.19,70.62q-.99.5-2,1c-.99,2.33-1.88,4.63-2.72,7.02-.54,1.48-1.08,2.97-1.62,4.45q-.42,1.17-.85,2.37c-1.46,4.04-2.94,8.07-4.43,12.1-.29.79-.59,1.59-.89,2.41q-14.14,38.13-24.49,53.65c-1.1,3.98-1.31,8.09-1.65,12.19-1.37,16.43-3.5,33.99-13.73,47.56-3.53,4.98-3.44,9.33-2.62,15.25.48,2.21.98,4.42,1.5,6.62,1.27,5.52,1.86,10.73,1.94,16.38.02.71.04,1.41.07,2.14-.02,5.09-1.33,7.94-4.5,11.86-3.96,3.21-6.98,3.51-12,3-2.76-.84-5.33-1.88-8-3q.09,1.08.19,2.19c-.38,5.68-4.12,9.14-8.19,12.81-3.56,2.49-6.74,2.43-11,2-2.8-1.11-5.38-2.52-8-4-1.33-.67-2.66-1.34-4-2-.56.6-1.11,1.2-1.69,1.81-3.83,3.62-5.82,5.21-11.25,5.12-6.02-1.1-9.65-4.06-13.19-8.94-6.04-9.68-7.94-20.92-9.88-32-.21-1.14-.42-2.29-.63-3.47-5.81-35.4,4.9-69.97,19.98-101.66,15.09-32,22.93-67.91,32.83-101.8,3.94-13.48,7.91-26.95,11.9-40.41,1.03-3.46,2.05-6.92,3.07-10.38.62-2.09,1.24-4.18,1.86-6.27q.41-1.4.84-2.83c1.31-4.42,2.66-8.81,4.16-13.18Z"/>
    <path class="cls-7" d="M157.23,1130c3.59.64,6.87,1.62,10.31,2.81,35.98,11.12,78.52,10.76,115.69,6.19.94-.11,1.87-.22,2.84-.34,2.83-.35,5.65-.72,8.48-1.1.83-.11,1.66-.22,2.52-.33,5.76-.84,11.85-1.78,17.17-4.23.33-.99.66-1.98,1-3,1.98.33,3.96.66,6,1,.06,10,.07,20,0,30q0,1.38-.02,2.8-.15,11.9-3.36,16.08-2.62,2.12-5.62,3.12c-.99-.33-1.98-.66-3-1-.33.99-.66,1.98-1,3-25.52,4.94-50.01,7.55-76,7-.86-.01-1.71-.03-2.59-.04q-52.63-1.02-66.41-11.96c-.85-.57-1.71-1.14-2.59-1.72q-2.41-2.28-3.07-5.12c-.02-1.09-.03-2.17-.05-3.29-.03-1.21-.06-2.42-.09-3.67,0-1.28-.01-2.56-.02-3.88-.02-1.3-.05-2.6-.07-3.94-.06-3.79-.09-7.58-.11-11.37,0-1-.02-2-.03-3.02-.04-4.66-.04-9.32.03-13.98Z"/>
    <path class="cls-7" d="M364.23,1141l2,1c.33.99.66,1.98,1,3,11.42,5.61,24.53,6.68,37,8,.84.1,1.67.19,2.53.29,8.37.88,16.75.91,25.16.9.77,0,1.54,0,2.33,0q38.51.35,74.98-10.19c.66-.99,1.32-1.98,2-3q3.85,2.37,4.51,5.12c0,.82.01,1.63.02,2.47q.02,1.39.05,2.81c0,1,0,2-.02,3.03,0,1.03.01,2.06.02,3.12,0,2.18,0,4.36,0,6.53-.01,3.33.02,6.67.06,10,0,2.12,0,4.23,0,6.35.01,1,.03,2,.04,3.02q-.09,6.92-3.04,10.12c-10.36,5.61-21.08,7.86-32.63,9.43-1.16.17-2.32.34-3.51.52-11.25,1.56-22.4,1.79-33.75,1.74-3.03-.01-6.07,0-9.1.01q-51.58.04-68.2-13.34c-2.27-3.05-2.55-6.2-2.75-9.93-.04-.78-.08-1.55-.13-2.36-.04-.83-.08-1.67-.12-2.53-.04-.87-.08-1.73-.12-2.63-.3-6.85-.45-13.7-.5-20.56-.01-.95-.03-1.89-.04-2.86,0-.88,0-1.76,0-2.67q0-1.17-.01-2.36.24-2.04,2.24-5.04Z"/>
    <path class="cls-26" d="M443.23,411h1q1.44,27.06-7,38c-.82,1.16-1.64,2.33-2.46,3.5-18.19,25.2-45.72,36.66-75.54,41.85-8.21,1.12-16.6.9-24.87.9-.83,0-1.66,0-2.51,0-12.08-.02-23.85-.24-35.62-3.25q-1.05-.27-2.11-.54c-15.48-4.08-30.16-10.29-39.26-24.15-3.99-7.24-7.03-15.98-6.62-24.31q1.71.67,3.45,1.36c8.49,3.27,16.97,6.23,25.8,8.46q1.13.29,2.28.59c13.24,3.21,26.41,3.98,39.97,3.91.78,0,1.57,0,2.38,0,44.93-.18,88.75-13.93,121.12-46.31Z"/>
    <path class="cls-31" d="M365.23,337c5.07,4.03,7.69,8.45,8.47,14.88.03,1.41.04,2.83.03,4.24,0,.74,0,1.49-.01,2.26-.36,12.06-6.45,22.28-14.93,30.58-5.72,4.56-13.19,9.04-20.55,9.04-.24-.61-.48-1.23-.73-1.86-1.39-3.35-2.69-6.41-4.95-9.26-3.05-1.16-5.54-.53-8.72-.14-4.45.45-8.88.41-13.35.39-.92,0-1.84,0-2.79.01-.89,0-1.78,0-2.7,0-.8,0-1.59,0-2.41,0-2.53-.14-4.87-.6-7.35-1.13q-3.54-.58-7,0c-3.03,3.42-4.47,6.47-5,11-7.74.45-13.35-3.07-19.28-7.83-9.4-8.88-14.56-19.89-15.1-32.86.3-6.56,1.79-12.24,6.62-16.88,2.45-2.15,3.72-2.43,7.02-2.74,4.06.33,7.28,1.29,11.1,2.68,26.1,9.15,56.09,8.28,81.58-2.52,3.74-1.05,6.29-.74,10.04.14Z"/>
    <path class="cls-29" d="M444.23,433c2.13.45,4.25.91,6.38,1.38,1.18.26,2.37.51,3.59.77q3.04.85,5.04,2.85h-2c-.37,1.26-.74,2.52-1.12,3.81-7.06,20.9-23.98,36.29-41.88,48.19q-1.21.83-2.45,1.68c-33.21,21.47-80.11,25.34-118.1,17.87-19.63-4.38-39.02-13.28-50.45-30.48-7.42-11.84-9.04-23.43-10.01-37.07,2.96-1.34,5.8-2.42,9-3q3.43,1.34,6,4c.97,2.68,1.58,4.87,2.06,7.62,2.59,12.06,7.38,21.85,17.59,29.32,16.16,10.06,36.67,14.14,55.55,14.26q1.14.01,2.3.02c2.44.02,4.87.02,7.31.03q1.25,0,2.52,0c12.11-.02,23.87-.28,35.67-3.25.73-.18,1.46-.36,2.21-.55,26.53-6.84,50.35-20.55,64.79-44.45,2.29-4.21,4.22-8.55,6-13Z"/>
    <path class="cls-36" d="M511.92,221.56c9.43,3.86,14.9,10.41,19.31,19.44,6.15,14.95,5.37,31.75-.44,46.71-5.56,11.9-13.64,22.17-26.03,27.32-6.96,2.33-13.43,2.82-20.53.97.06-10.41.14-20.81.24-31.22.04-4.83.08-9.66.11-14.5.03-4.67.07-9.34.12-14.01.02-1.78.03-3.55.03-5.33q.08-21.53,6.5-28.51c6.22-4.69,13.73-3.09,20.69-.88Z"/>
    <path class="cls-15" d="M318.23,1226h1c.4,3,.73,5.98,1,9,.09,1,.18,2,.28,3.02q.46,8.89-2.65,12.91c-9.68,9.32-26.47,13.68-39.61,14.32-6.71.59-12.43,2.87-18.64,5.36-24.72,9.51-51.3,17.42-78.01,17.58-.79,0-1.59.01-2.4.02q-61.11.42-81.57-16.57-1.38-1.66-1.31-5.6c.19-1.54.39-3.08.61-4.62.09-.78.18-1.56.28-2.37q.75-5.79,3.03-8.07.25,1.08.5,2.19c3.11,5.82,9.17,7.87,15.19,9.88,5.92,1.7,11.9,2.95,17.94,4.12q1.29.25,2.6.51c11.45,2.12,22.84,2.55,34.46,2.56q1.08,0,2.18,0c25.51-.02,49.23-4.57,73.37-12.67q1.17-.39,2.37-.8c1.7-.57,3.41-1.15,5.11-1.73,5.92-1.99,11.87-3.86,17.85-5.67,1.54-.47,3.07-.94,4.61-1.41,2.28-.7,4.56-1.39,6.85-2.07q18.72-5.01,33.97-15.91.71-2.1,1-4Z"/>
    <path class="cls-15" d="M365.23,1242h1c.02,1.11.04,2.23.06,3.38.75,5.97,4.29,10.04,7.94,14.62.55.72,1.1,1.43,1.67,2.17,13.93,17.11,38.34,22.67,59.33,24.83,5.83.35,11.66.34,17.5.31q1.18,0,2.39,0c21.02-.09,47.44-.21,64.05-15.07,3.48-3.78,6.36-7.87,9.06-12.23,3.9,3.9,3.08,11.66,3.09,17.01-.26,5.66-3.06,9.22-6.97,13.05-25.03,19.5-64.64,19.28-94.56,15.75-21.28-2.83-41.33-8.92-55.56-25.81-.47-.52-.95-1.04-1.43-1.57-7-7.72-9.58-13.72-9.17-24.21.28-4.12.85-8.16,1.6-12.22Z"/>
    <path class="cls-9" d="M492.23,575h2c3.66,16.25,6.85,32.55,9.81,48.94.41,2.26.82,4.51,1.23,6.77.99,5.43,1.97,10.86,2.96,16.29,20.21.2,39.3-2.6,59-7q1.36-.3,2.75-.61c19.58-4.38,37.34-11.56,55.28-20.47q1.97-.92,4.97-1.92c.33-.66.66-1.32,1-2,2.46,5.25,3.9,10.31,5,16-33.39,21.58-77.53,28.51-116.56,32.19q-1.32.13-2.67.25c-6.27.55-12.48.65-18.77.56-1.72-18.99-3.35-37.99-4.92-57-.18-2.21-.36-4.41-.55-6.62-.26-3.12-.51-6.25-.77-9.37-.08-.94-.16-1.88-.24-2.84-.07-.87-.14-1.74-.21-2.64-.06-.76-.12-1.51-.19-2.29-.14-2.42-.22-4.81-.13-7.23l1-1Z"/>
    <path class="cls-10" d="M172.23,220c.16,22.19-.26,44.33-.93,66.51-.12,4.14-.24,8.28-.36,12.41-.23,8.03-.47,16.05-.71,24.08h-1v-10c-.83-.04-1.65-.08-2.5-.12-8.31-2.08-14.09-8.82-18.5-15.88-5.25-10.54-7.38-20.07-7.31-31.75,0-1.07.01-2.14.02-3.23.21-13.73,3.14-24.64,12.67-34.89,5.9-5.5,10.6-7.22,18.62-7.12Z"/>
    <path class="cls-1" d="M153.23,551h3c-.65,19.3-2.13,38.53-3.58,57.78-.35,4.66-.7,9.32-1.04,13.98-.27,3.61-.54,7.21-.81,10.82-.13,1.72-.26,3.44-.38,5.16-.17,2.38-.36,4.76-.54,7.14-.05.71-.1,1.42-.15,2.15q-.38,4.84-1.49,5.96c-7.19.65-13.96-.52-20.94-2.12-1-.22-1.99-.45-3.02-.68-19.29-4.46-37.95-10.35-54.04-22.2q-1.41-1.01-2.84-2.04c-.71-.65-1.43-1.3-2.16-1.96,0-5.22,1.82-9.36,4-14,.09.61.18,1.22.28,1.85.92,2.73,1.8,3.17,4.31,4.52.76.41,1.51.82,2.29,1.24q1.24.63,2.5,1.27c.85.44,1.71.88,2.58,1.33,17.05,8.5,36.15,12.91,55.04,14.79-.03-1.02-.05-2.03-.08-3.08.07-3.76.54-7.02,1.31-10.69.13-.64.26-1.27.4-1.93.43-2.09.88-4.17,1.32-6.25.31-1.47.61-2.93.92-4.4.64-3.07,1.29-6.13,1.94-9.2.83-3.9,1.65-7.8,2.46-11.7.63-3.03,1.27-6.05,1.91-9.08.3-1.44.6-2.87.91-4.31,1.72-8.19,3.58-16.31,5.91-24.36Z"/>
    <path class="cls-32" d="M79.23,847c.99.33,1.98.66,3,1,.94,11.55-1.73,20.88-8.69,30.19-3.63,4.9-4.5,8.87-5.31,14.81-.67,3.37-1.34,6.75-2.04,10.12q-1.6,8.02-.09,15.85c.37.51.74,1.01,1.12,1.53,2.29,4.09,2.42,8.09,2.44,12.69,0,.69.02,1.38.03,2.09-.1,6.02-1.96,9.06-5.9,13.41-3.44,3.1-5.2,4.16-9.81,4.69-4.65-.46-7.74-2.11-11.75-4.38-1.33-.67-2.66-1.34-4-2l-4,4c-.78-2.35-1.04-3.8-.54-6.26,2.11-10.65.58-20.88-5.02-30.12-7.13-12.23-5.21-29.35-2.44-42.62q1.07-2.41,2-4h3c1.59,7.01.98,14.22.79,21.35q-.17,12.73,5.11,23.88c3.51,2.95,7.31,4.43,11.79,5.27q2.49-.34,4.44-2.44c3.76-6.14,5.13-12.96,6.46-19.97,1.9-9.78,4.52-17.07,10.33-25.13,4.52-6.44,6.41-13.36,7.69-21.04q.39-1.93,1.39-2.93Z"/>
    <path class="cls-4" d="M374.17,187.81c.69,0,1.38,0,2.09,0q31.16.09,40.97,7.18c2.99,3.14,4.86,5.47,5.25,9.81-.28,3.58-1.13,5.33-3.25,8.19-5.61,2.81-13.51.84-19.44,0-12.49-1.73-24.96-1.3-37.49-.24q-14.45,1.14-17.96-.8c-2.87-2.8-4.04-5.27-4.42-9.2.38-4.52,1.35-6.33,4.31-9.75,8.92-6.34,19.38-5.21,29.94-5.19Z"/>
    <path class="cls-39" d="M253.05,187.75c1.24-.02,2.48-.04,3.76-.06,8.56-.03,17.01.34,23.99,5.81,3.49,3.58,3.78,6.57,3.73,11.5-.46,3.18-2,4.85-4.29,7-3.01,1-5.04,1.13-8.19,1.12q-1.35,0-2.73,0-3.08-.13-6.59-.63c-6.06-.8-12.15-.69-18.25-.69-1.2-.01-2.4-.02-3.63-.04-6.83-.01-13.26.45-19.96,1.75-5.85,1.04-10.7,1.77-15.78-1.59-2.45-3.83-2.79-5.46-1.88-9.94,4.1-6.59,9.84-10.77,17.37-12.56,10.66-1.77,21.67-1.59,32.45-1.69Z"/>
    <path class="cls-17" d="M309.23,1182c.99.33,1.98.66,3,1h-2c.35.91.7,1.82,1.06,2.75.9,3.13,1.07,4.3-.06,7.25q-.99-1.98-2-4c-.69.39-1.38.77-2.1,1.17-8.05,4.29-15.98,7-24.9,8.83-.73.15-1.45.3-2.2.46-35.71,7.04-82.81,5.03-115.8-11.46q-2.1.4-4,1c3.28-4.09,6.92-5.38,12-6,2.87.42,5.36.92,8.12,1.69,17.03,4.22,34.36,5.93,51.88,6.31.97.02,1.94.04,2.93.07,20.48.39,40.25-1.06,60.44-4.57,1.24-.21,2.48-.43,3.75-.65,1.14-.21,2.28-.42,3.46-.63q1.53-.28,3.1-.56c.77-.22,1.53-.43,2.32-.65l1-2Z"/>
    <path class="cls-23" d="M302.98,232.62q1.11.19,2.25.38c2,4,1.28,8.12-.04,12.25q-.72,1.64-1.45,3.32c-.26.6-.51,1.21-.78,1.83-.82,1.91-1.65,3.82-2.49,5.73q-10.08,20.62-10.38,42.5c4.67,5.22,12.02,8.08,18.94,8.58,7.85.12,14.68-.93,22.19-3.2q-.12,3.25-1,7c-6.92,6.09-15.25,6.44-24.07,6.32-8.16-.67-18.43-3.16-24.61-8.88-5.1-7.51-4.16-15.74-2.62-24.35,2.86-12.96,7.84-25.23,13.43-37.23.32-.7.65-1.4.98-2.12q5.52-11.57,9.64-12.13Z"/>
    <path class="cls-3" d="M374.23,1197c2.61.55,5.17,1.16,7.75,1.81,18.82,4.6,37.39,5.45,56.69,5.5,1.04,0,2.08,0,3.15,0,17.17.02,33.53-1.14,50.41-4.32,2.09-.38,4.18-.76,6.27-1.13,1.58-.29,3.16-.58,4.73-.87q1.06,1.81,2,4c-.33.99-.66,1.98-1,3-19.01,8.25-41.24,8.95-61.62,9.69-1.26.05-2.52.1-3.82.15-15.83.48-30.83-.93-46.37-3.83-1.53-.28-3.05-.55-4.58-.83q-11.67-2.12-15.61-3.17c.14-1.48.29-2.96.44-4.44.08-.82.16-1.65.25-2.5q.32-2.07,1.32-3.07Z"/>
    <path class="cls-17" d="M251.23,869c7.41.5,14.26,1.97,21.44,3.81,12.6,3.11,25.19,4.64,38.08,5.89.73.07,1.47.15,2.22.22,2,.2,4,.39,6,.57,2.92.45,4.85.81,7.25,2.5.94,2.82,1.12,4.53,1.1,7.45q0,1.27,0,2.57t-.03,2.67c0,.89,0,1.79-.01,2.71-.01,2.2-.03,4.4-.05,6.61-8.28-.5-15.68-2.9-23.5-5.56-.67-.23-1.33-.45-2.02-.68-14.63-4.96-27.81-10.91-40.98-19q-1.25-.76-2.52-1.54c-.77-.49-1.53-.97-2.32-1.48-.68-.43-1.37-.86-2.07-1.31-1.91-1.72-2.22-2.93-2.59-5.43Z"/>
    <path class="cls-25" d="M485.23,235h1c.33,6.6.66,13.2,1,20,3.96-.33,7.92-.66,12-1,.1-1.09.21-2.19.31-3.31q.69-3.69,1.88-5.62c2.78-1.63,4.65-1.51,7.81-1.06q2.88,1.75,5,4v4c-2.97-.33-5.94-.66-9-1l-1,3c.76.66,1.53,1.32,2.31,2,4.21,4.25,5.47,9.04,6.12,14.88-.34,7.47-3.8,14.33-8.87,19.71-3.64,3.28-6.29,4.45-11.19,4.29-3.38-.88-4.92-1.46-7.38-3.88q-.48-2.49-.45-5.48c0-1.12,0-2.24,0-3.4.02-1.21.04-2.42.06-3.66,0-1.24.01-2.48.02-3.75.02-3.29.05-6.58.1-9.87.04-3.36.06-6.72.08-10.07.04-6.59.11-13.17.2-19.76Z"/>
    <path class="cls-18" d="M265.23,351c3.72.28,6.59,1.23,9.88,2.88,19.91,8.93,48.42,7.87,69.12,2.12,2.84-1.18,5.43-2.42,8.05-4.01q1.95-.99,5.95-.99c.3,3.8.38,6.29-1.44,9.69-11.92,10.76-31.72,9.6-46.81,9.69-.67,0-1.34.02-2.03.02-13.74.13-29.7-1.01-41.29-9.21-1.98-3.01-2.24-5.63-2.44-9.19l1-1Z"/>
    <path class="cls-38" d="M59.23,919q2,1,3,3.34,5.82,17.67,4.06,24.1c-3.51,4.36-6.97,6.26-12.5,7.06-6.35-.89-11.36-3.6-15.56-8.5l1-2c.15-1.52.25-3.04.32-4.57.04-.9.08-1.79.13-2.71q.06-1.41.12-2.84c.04-.94.09-1.89.13-2.86.11-2.34.21-4.67.31-7.01.75.16,1.51.32,2.28.48,4.61.87,8.31,1.27,12.53-.98.72-.49,1.44-.99,2.19-1.5h2v-2Z"/>
    <path class="cls-12" d="M254.23,233c4.27,2.56,6.32,5.32,8,10,.98,6.44-.18,11.71-4,17-3.35,3.19-5.88,4.34-10.44,4.25-4.94-.79-7.22-3.44-10.25-7.24-2.85-4.36-3.03-8.97-2.31-14.01,1.75-4.38,4.01-7.28,7.81-10.06,4.07-1.2,7.14-1.16,11.19.06Z"/>
    <path class="cls-39" d="M381.23,233c3.98,2.13,6.35,4.81,8.5,8.75.95,6.19.78,11.94-2.81,17.25-3.27,3.95-5.36,4.83-10.5,5.5-4.38-.11-6.71-1.86-9.78-4.87-3.73-4.31-3.79-8.69-3.66-14.2.47-4.61,2.34-7.38,5.31-10.81,4.33-2.39,8.11-2.62,12.94-1.62Z"/>
    <path class="cls-35" d="M615.23,891q2.06.44,4,1c1.02,21.81-4.53,50.09-19,67-1.98-.99-3.96-1.98-6-3l1.76-1.95c2.75-3.74,4.41-7.5,6.12-11.8.34-.86.69-1.73,1.04-2.61,5.53-14.48,9.02-29.96,10.76-45.35q.32-2.28,1.32-3.28Z"/>
    <path class="cls-35" d="M643.23,888h3c5.77,11.54-1.23,32.79-4.96,44.3q-5.65,16.52-9.98,18.66-1.94.29-5.06.04c1.12-3.78,2.58-7.22,4.31-10.75,7.06-15.4,9.85-32.72,11.42-49.48q.27-1.77,1.27-2.77Z"/>
    <path class="cls-21" d="M509.23,244q2.88,1.75,5,4v4c-2.97-.33-5.94-.66-9-1l-2,3h-4q.6-6.35,2.19-8.94c2.78-1.63,4.65-1.51,7.81-1.06Z"/>
    <path class="cls-28" d="M331.23,304q-.88,6.88-2,8c-1.67.04-3.33.04-5,0v-4h-5c3.64-2.43,7.56-4,12-4ZM305.23,308h14v1h-14v-1Z"/>
    <path class="cls-34" d="M415.23,17q3.46,1.98,7,4,0,3-2.5,5.69c-.83.76-1.65,1.53-2.5,2.31-1.29-4.12-2.26-7.67-2-12Z"/>
    <path class="cls-30" d="M451.23,292c1.33,3.64.66,5.67-.81,9.19-.36.88-.71,1.76-1.08,2.67q-1.11,2.14-3.11,3.14c.09-1.44.2-2.88.31-4.31.06-.8.12-1.6.18-2.43.6-2.67,1.53-3.45,3.51-5.26.33-.99.66-1.98,1-3Z"/>
    <path class="cls-24" d="M492.23,575h2c-.33,4.29-.66,8.58-1,13h-1c-.19-1.98-.38-3.96-.56-5.94-.1-1.1-.21-2.2-.32-3.34-.04-.9-.08-1.8-.12-2.72l1-1Z"/>
    <path class="cls-19" d="M248.23,443c.41.45.82.91,1.25,1.38,1.81,1.68,3.5,2.62,5.75,3.62-.99.33-1.98.66-3,1l-1,2h-2l-1-8Z"/>
    <path class="cls-5" d="M241.23,439c2.48,1.11,4.68,2.58,7,4-.33.66-.66,1.32-1,2l-1-1c-1.35-.23-2.7-.41-4.06-.56-1.3-.14-2.6-.29-3.94-.44.33-.99.66-1.98,1-3l2-1Z"/>
    <path class="cls-27" d="M371.23,364c.93,2.55,1.09,3.74.22,6.36-.38.79-.77,1.58-1.16,2.39q-.57,1.2-1.15,2.42c-.3.6-.6,1.21-.91,1.83h-1c-.37-4.32.65-6.42,3-10,.33-.99.66-1.98,1-3Z"/>
    <path class="cls-11" d="M179.23,460l2,1c-2.77,3.81-6.63,4.07-11,5,2.55-2.97,5.42-4.48,9-6Z"/>
    <path class="cls-22" d="M167.23,308l2,4q-1.69.69-4,1-2.75-1.44-5-3c.66-.33,1.32-.66,2-1q2.12.94,4,2c.33-.99.66-1.98,1-3Z"/>
    <path class="cls-2" d="M69.23,611c.08.62.17,1.24.25,1.88q.56,2.31,2.81,3.38c.64.25,1.28.49,1.94.75-.33.66-.66,1.32-1,2q-2.97-.49-6-1,.88-4.75,2-7Z"/>
    <path class="cls-33" d="M142.23,738c1.03,2.79,1.05,3.87.06,6.75-.35.74-.7,1.48-1.06,2.25h-1v-8l2-1Z"/>
    <path class="cls-37" d="M331.23,304v5q-1.94-.31-4-1c-.33-.99-.66-1.98-1-3q3-1,5-1Z"/>
  </g>
</svg>