<?xml version="1.0" encoding="UTF-8"?>
<svg id="Layer_2" data-name="Layer 2" xmlns="http://www.w3.org/2000/svg" viewBox="0 0 547.2 547.2">
  <defs>
    <style>
      .cls-1 {
        fill: #fff;
      }
    </style>
  </defs>
  <g id="Layer_4" data-name="Layer 4">
    <g>
      <path class="cls-1" d="M376.24,233.58c-1.74-1.29-4.41-.55-5.93.02-1.03.39-2.28,1.09-3.2,2.35-1.93,2.66-1.65,6.79.75,10.35.13,7.28.25,14.56.38,21.84-.6.44-1.37,1.1-2.07,2.07-1.23,1.7-1.58,3.41-1.69,4.33v10.82c1.27-.78,3.07-2.08,4.71-4.14,2.1-2.65,2.87-5.2,3.95-8.94.66-2.29,1.41-5.44,1.81-9.31.74-7.1,1.89-12.23,2.52-20.24.43-5.5.42-7.93-1.22-9.15Z"/>
      <path class="cls-1" d="M348.86,195.11c-3.25-14.24-6.63-25.87-9.13-33.88-19.76,5.27-39.53,10.54-59.29,15.81l-70.31-15.81c-1.82,7.09-4.25,17.06-6.78,29.08-3.96,18.86-6.88,32.77-7.91,46.87-.99,13.59-.68,33.63,6.21,58.45,3.72,2.99,7.66,6.42,11.67,10.35,3.28,3.21,6.22,6.38,8.85,9.41,4.94-4.47,10.76-9.22,17.51-13.93,7.66-5.35,14.98-9.56,21.55-12.89-1.05-.9-2.1-1.8-3.15-2.7-.02-2.27-.03-4.53-.05-6.8,6.56,1.95,13.11,3.89,19.67,5.84.69-.69,2.09-1.92,4.24-2.54,1.23-.36,2.32-.41,3.11-.38.96-.19,2.04-.59,2.54-1.51.6-1.08.11-2.39,0-2.73-.66-1.97-.97-12.92-1.59-34.82-.17-5.9.03-14.52,1.87-25.23,1.09.67,2.69,1.44,4.71,1.69,2.83.36,5.07-.48,5.84-.75,4.09-1.47,17.64-5.53,36.24-11.11,3.37,2.73,7.35,6.51,11.11,11.58,2.05,2.77,3.68,5.45,4.99,7.91-3.74-.96-10.03-2.04-17.6-.75-4.96.84-8.94,2.45-11.76,3.86,2.08-.17,6.05-.21,10.54,1.6,5.15,2.08,8.2,5.49,9.51,7.15-2.95-.1-6.65-.54-10.73-1.79-1.93-.59-3.66-1.28-5.18-1.98.05,6.33-5.44,11.14-11.11,10.54-5.29-.56-9.53-5.72-8.85-11.58-1.22,1.02-3.01,2.27-5.36,3.29-1.93.83-3.69,1.27-5.08,1.51.48,6.45.62,11.69.66,15.25.11,9.9-.46,14.38,2.22,19.78,1.58,3.19,3.66,5.41,5.12,6.76-.69,1.12-1.96,2.83-4.05,4.33-1.59,1.14-3.13,1.77-4.24,2.12,6.89,3.49,14.63,8.01,22.68,13.88,5.66,4.12,10.6,8.28,14.87,12.24,6.12-7.09,12.24-14.18,18.35-21.27,5.63-20.84,6.25-38,5.84-49.41-.58-16.16-3.52-29.05-7.72-47.44ZM267.35,231.58c-1.37,5.57-2.51,6.84-3.74,7.32-1,.39-2.12.27-7.5-2-2.89-1.22-5.25-2.32-6.87-3.11,1.03,6.29-3.74,11.94-9.51,12.19-5.62.24-10.77-4.71-10.54-10.92-1.61.98-3.8,2.09-6.54,2.92-3.55,1.07-6.67,1.23-8.85,1.18,1.22-1.69,4.17-5.29,9.36-7.53,4.41-1.9,8.35-1.92,10.4-1.79-1.95-.86-4.14-1.66-6.56-2.31-9.14-2.47-17.27-1.63-22.66-.51,1.59-3.07,3.9-6.84,7.2-10.73,3.11-3.67,6.25-6.44,8.89-8.47,19.17,5.17,33.16,8.92,37.55,10.35.97.32,3.74,1.26,7.15.66,1.73-.31,3.09-.92,4-1.41-.09,6.01-.97,10.81-1.79,14.16Z"/>
      <path class="cls-1" d="M186.6,238.02c-1.6-4.24-7.18-6.86-10.45-4.72-2.08,1.36-2.98,4.48-2.35,7.73.85,9.32,1.69,18.64,2.54,27.95.26,2.44,1.09,6.95,4.14,11.58,2.09,3.17,4.49,5.27,6.22,6.55.26-3.31.3-6.12.28-8.24-.05-4.85-.46-6.5-1.41-8-.88-1.37-1.98-2.23-2.73-2.73v-19.95c3.6-2.36,5.08-6.67,3.76-10.16Z"/>
      <path class="cls-1" d="M290.6,313.69c-3.99.44-8.3.76-12.9.89-5.03.15-9.73.06-14.07-.19-3.15,1.92-6.35,3.94-9.6,6.07-4.81,3.16-9.38,6.32-13.69,9.46l11.15,7.91c4.52-3.58,9.04-7.15,13.55-10.73,3.93.41,8.36.65,13.22.56,4.74-.08,9.06-.47,12.89-.99l15.25,11.15c3.44-2.54,6.87-5.08,10.31-7.62-3.86-3.65-9.04-7.83-15.67-11.58-3.7-2.09-7.24-3.7-10.45-4.94Z"/>
      <path class="cls-1" d="M453,0H94.2C42.17,0,0,42.17,0,94.2v358.81c0,52.02,42.17,94.2,94.2,94.2h358.81c52.02,0,94.2-42.17,94.2-94.2V94.2c0-52.02-42.17-94.2-94.2-94.2ZM158.39,116.67h-6.05c-9.38,0-16.38,1.01-21,3.03-4.62,2.02-7.88,5.83-9.77,11.43-1.89,5.6-2.83,14.26-2.83,25.98v28.32c0,16.67-1.14,30.6-3.42,41.8-2.28,11.2-6.35,20.61-12.21,28.22s-14.39,13.77-25.59,18.46c10.55,4.95,18.78,10.87,24.71,17.77,5.92,6.9,10.16,15.89,12.7,26.95,2.54,11.07,3.81,25.46,3.81,43.16v28.91c0,11.72.94,20.34,2.83,25.88,1.89,5.53,5.18,9.28,9.86,11.23s11.65,2.93,20.9,2.93h6.05v30.66h-10.94c-8.59,0-14.91-.2-18.95-.59-4.04-.39-8.53-1.76-13.48-4.1-6.64-3-12.14-7.46-16.5-13.38-4.36-5.93-7.55-13.35-9.57-22.27-2.02-8.92-3.03-19.17-3.03-30.76,0-27.08-.49-46.61-1.46-58.59-.98-11.98-4.36-21.81-10.16-29.49-5.79-7.68-15.53-11.78-29.2-12.3v-32.03c13.67-.52,23.4-4.65,29.2-12.4,5.79-7.75,9.18-17.64,10.16-29.69.98-12.04,1.46-31.61,1.46-58.69,0-11.59,1.01-21.81,3.03-30.66,2.02-8.85,5.18-16.18,9.47-21.97,4.3-5.79,9.83-10.25,16.6-13.38,3.52-1.69,7.06-2.93,10.64-3.71,3.58-.78,7-1.24,10.25-1.37,3.25-.13,7.1-.2,11.52-.2h10.94v30.86ZM385.37,244.42c-.27,8.63-.92,15.82-1.51,21.08-1.71,15.28-3.49,18.98-5.27,21.6-3.85,5.66-9.27,8.55-12.8,10.02l2.64,51.95-33.51,51.58-1.51-10.54c-5.11,6-11.79,12.86-20.33,19.58-11.57,9.11-22.76,15-31.62,18.82-9.09-3.43-20.39-8.62-32.38-16.56-11.37-7.54-20.19-15.47-26.73-22.21l1.13,11.67-38.78-51.2,2.26-52.71c-2.21-.67-9.34-3.11-14.31-10.4-3.76-5.52-4.39-11.02-4.52-13.51-1.38-10.1-2.76-20.2-4.14-30.31-.16-.51-2.53-8.7,3.01-15.06,4.29-4.93,10.25-5.24,11.29-5.27l-4.14-53.84c7.33-8.34,14.65-16.67,21.98-25.01.9-1.84,2.38-4.4,4.75-6.99,1.12-1.22,5.19-5.46,16.19-9.41,4.93-1.77,12.22-3.84,21.46-4.52,36.64-1.51,73.29-3.01,109.93-4.52.86,1.22,5.41,7.92,3.76,16.94-1.53,8.38-7.33,12.94-8.66,13.93,3.23.68,9.57,2.46,15.81,7.53,6.16,5,9.2,10.73,10.54,13.74-.63,17.38-1.25,34.76-1.88,52.14,1.26-.12,7.39-.57,12.42,3.76,4.83,4.16,6.73,11.07,4.89,17.69ZM502.09,289.91c-13.8.39-23.57,4.49-29.3,12.3-5.73,7.81-9.08,17.77-10.06,29.88s-1.46,31.51-1.46,58.2c0,11.59-1.01,21.84-3.03,30.76-2.02,8.92-5.24,16.34-9.67,22.27-4.43,5.92-9.96,10.38-16.6,13.38-4.69,2.21-9.47,3.55-14.36,4-4.88.46-10.91.68-18.07.68h-10.74v-30.66h6.05c9.38,0,16.37-.98,21-2.93,4.62-1.95,7.88-5.73,9.77-11.33,1.89-5.6,2.83-14.19,2.83-25.78v-28.91c0-25.26,2.8-44.56,8.4-57.91,5.6-13.35,16.41-23.34,32.42-29.98-7.81-3.77-14.29-7.97-19.43-12.6-5.15-4.62-9.31-10.28-12.5-16.99-3.19-6.7-5.47-14.78-6.84-24.22-1.37-9.44-2.05-21-2.05-34.67v-28.32c0-11.59-.95-20.18-2.83-25.78-1.89-5.6-5.15-9.44-9.77-11.52-4.62-2.08-11.62-3.12-21-3.12h-6.05v-30.86h10.74c7.16,0,13.28.33,18.36.98,5.08.65,9.77,2.08,14.06,4.3,6.9,3,12.5,7.42,16.8,13.28s7.45,13.22,9.47,22.07c2.02,8.86,3.03,19.08,3.03,30.66,0,26.83.49,46.32,1.46,58.5.98,12.18,4.33,22.17,10.06,29.98,5.73,7.81,15.49,11.91,29.3,12.3v32.03Z"/>
    </g>
  </g>
</svg>