<?xml version="1.0" encoding="UTF-8"?>
<svg id="Layer_2" data-name="Layer 2" xmlns="http://www.w3.org/2000/svg" viewBox="0 0 456.98 375.59">
  <defs>
    <style>
      .cls-1 {
        fill: #231f20;
      }
    </style>
  </defs>
  <g id="Layer_3" data-name="Layer 3">
    <g>
      <path class="cls-1" d="M335.37,140.92c-5.03-4.33-11.16-3.88-12.42-3.76.63-17.38,1.25-34.76,1.88-52.14-1.34-3.01-4.38-8.74-10.54-13.74-6.25-5.07-12.58-6.85-15.81-7.53,1.33-.99,7.13-5.55,8.66-13.93,1.64-9.02-2.91-15.72-3.76-16.94-36.64,1.51-73.29,3.01-109.93,4.52-9.24.68-16.53,2.75-21.46,4.52-11,3.96-15.07,8.19-16.19,9.41-2.37,2.59-3.85,5.15-4.75,6.99-7.33,8.34-14.65,16.67-21.98,25.01l4.14,53.84c-1.04.04-7,.34-11.29,5.27-5.54,6.36-3.17,14.54-3.01,15.06,1.38,10.1,2.76,20.2,4.14,30.31.13,2.49.75,7.99,4.52,13.51,4.97,7.28,12.09,9.73,14.31,10.4l-2.26,52.71,38.78,51.2-1.13-11.67c6.54,6.74,15.36,14.67,26.73,22.21,11.98,7.95,23.28,13.14,32.38,16.56,8.86-3.82,20.06-9.72,31.62-18.82,8.54-6.72,15.22-13.57,20.33-19.58l1.51,10.54,33.51-51.58-2.64-51.95c3.53-1.47,8.95-4.36,12.8-10.02,1.78-2.62,3.56-6.33,5.27-21.6.59-5.26,1.23-12.45,1.51-21.08,1.84-6.62-.07-13.54-4.89-17.69ZM140.45,185.06c.96,1.5,1.36,3.15,1.41,8,.02,2.12-.02,4.93-.28,8.24-1.73-1.28-4.13-3.38-6.22-6.55-3.05-4.62-3.87-9.13-4.14-11.58-.85-9.32-1.69-18.64-2.54-27.95-.63-3.26.27-6.38,2.35-7.73,3.27-2.14,8.85.48,10.45,4.72,1.32,3.49-.17,7.8-3.76,10.16v19.95c.75.5,1.85,1.36,2.73,2.73ZM261.3,252.03l-15.25-11.15c-3.83.52-8.15.9-12.89.99-4.86.09-9.3-.16-13.22-.56-4.52,3.58-9.04,7.15-13.55,10.73l-11.15-7.91c4.32-3.14,8.88-6.3,13.69-9.46,3.25-2.13,6.45-4.15,9.6-6.07,4.34.25,9.04.34,14.07.19,4.59-.14,8.9-.46,12.9-.89,3.21,1.24,6.74,2.85,10.45,4.94,6.63,3.75,11.81,7.93,15.67,11.58-3.44,2.54-6.87,5.08-10.31,7.62ZM305.63,206.15c-6.12,7.09-12.24,14.18-18.35,21.27-4.27-3.96-9.21-8.11-14.87-12.24-8.05-5.87-15.79-10.39-22.68-13.88,1.11-.35,2.64-.98,4.24-2.12,2.09-1.5,3.35-3.21,4.05-4.33-1.46-1.35-3.54-3.56-5.12-6.76-2.68-5.41-2.11-9.89-2.22-19.78-.04-3.56-.18-8.8-.66-15.25,1.39-.24,3.15-.67,5.08-1.51,2.36-1.02,4.14-2.28,5.36-3.29-.68,5.86,3.56,11.02,8.85,11.58,5.66.6,11.16-4.21,11.11-10.54,1.52.7,3.25,1.39,5.18,1.98,4.08,1.25,7.78,1.69,10.73,1.79-1.31-1.67-4.36-5.07-9.51-7.15-4.49-1.81-8.46-1.77-10.54-1.6,2.82-1.41,6.8-3.02,11.76-3.86,7.57-1.29,13.86-.2,17.6.75-1.3-2.45-2.94-5.14-4.99-7.91-3.75-5.07-7.73-8.85-11.11-11.58-18.6,5.57-32.15,9.63-36.24,11.11-.77.28-3.01,1.11-5.84.75-2.02-.26-3.62-1.03-4.71-1.69-1.84,10.71-2.04,19.33-1.87,25.23.62,21.9.92,32.85,1.59,34.82.11.34.6,1.65,0,2.73-.5.91-1.58,1.31-2.54,1.51-.79-.03-1.87.02-3.11.38-2.14.63-3.55,1.85-4.24,2.54-6.56-1.95-13.11-3.89-19.67-5.84.02,2.27.03,4.53.05,6.8,1.05.9,2.1,1.8,3.15,2.7-6.57,3.33-13.9,7.55-21.55,12.89-6.75,4.71-12.56,9.46-17.51,13.93-2.63-3.03-5.57-6.2-8.85-9.41-4.01-3.93-7.95-7.37-11.67-10.35-6.89-24.82-7.2-44.86-6.21-58.45,1.03-14.11,3.95-28.01,7.91-46.87,2.52-12.02,4.96-22,6.78-29.08l70.31,15.81c19.76-5.27,39.53-10.54,59.29-15.81,2.5,8.01,5.88,19.64,9.13,33.88,4.2,18.39,7.13,31.28,7.72,47.44.41,11.42-.21,28.57-5.84,49.41ZM332.36,156.92c-.63,8.01-1.78,13.14-2.52,20.24-.4,3.87-1.15,7.03-1.81,9.31-1.08,3.75-1.85,6.29-3.95,8.94-1.64,2.06-3.44,3.36-4.71,4.14v-10.82c.12-.92.47-2.63,1.69-4.33.7-.97,1.47-1.64,2.07-2.07-.13-7.28-.25-14.56-.38-21.84-2.41-3.56-2.69-7.7-.75-10.35.92-1.26,2.17-1.96,3.2-2.35,1.52-.57,4.19-1.31,5.93-.02,1.64,1.21,1.66,3.65,1.22,9.15Z"/>
      <path class="cls-1" d="M212.88,132.36c-4.4-1.44-18.39-5.18-37.55-10.35-2.64,2.03-5.78,4.8-8.89,8.47-3.3,3.89-5.61,7.66-7.2,10.73,5.39-1.12,13.52-1.96,22.66.51,2.42.65,4.61,1.46,6.56,2.31-2.05-.13-5.99-.11-10.4,1.79-5.19,2.24-8.15,5.84-9.36,7.53,2.18.06,5.3-.11,8.85-1.18,2.74-.82,4.94-1.94,6.54-2.92-.23,6.21,4.92,11.16,10.54,10.92,5.77-.25,10.53-5.89,9.51-12.19,1.62.78,3.98,1.88,6.87,3.11,5.39,2.28,6.5,2.39,7.5,2,1.23-.48,2.38-1.75,3.74-7.32.82-3.35,1.7-8.16,1.79-14.16-.91.49-2.27,1.1-4,1.41-3.41.61-6.19-.34-7.15-.66Z"/>
      <path class="cls-1" d="M90.82.2c-3.26.13-6.67.59-10.25,1.37-3.58.78-7.13,2.02-10.64,3.71-6.77,3.12-12.3,7.59-16.6,13.38-4.3,5.8-7.46,13.12-9.47,21.97-2.02,8.86-3.03,19.08-3.03,30.66,0,27.08-.49,46.65-1.46,58.69-.98,12.05-4.36,21.94-10.16,29.69-5.79,7.75-15.53,11.88-29.2,12.4v32.03c13.67.52,23.4,4.62,29.2,12.3,5.79,7.68,9.18,17.51,10.16,29.49.98,11.98,1.46,31.51,1.46,58.59,0,11.59,1.01,21.84,3.03,30.76,2.02,8.92,5.21,16.34,9.57,22.27,4.36,5.92,9.86,10.38,16.5,13.38,4.95,2.34,9.44,3.71,13.48,4.1,4.03.39,10.35.59,18.95.59h10.94v-30.66h-6.05c-9.25,0-16.21-.98-20.9-2.93s-7.98-5.7-9.86-11.23c-1.89-5.54-2.83-14.16-2.83-25.88v-28.91c0-17.71-1.27-32.1-3.81-43.16-2.54-11.07-6.77-20.05-12.7-26.95-5.93-6.9-14.16-12.82-24.71-17.77,11.2-4.69,19.73-10.84,25.59-18.46s9.93-17.02,12.21-28.22c2.28-11.2,3.42-25.13,3.42-41.8v-28.32c0-11.72.94-20.38,2.83-25.98,1.89-5.6,5.14-9.41,9.77-11.43,4.62-2.02,11.62-3.03,21-3.03h6.05V0h-10.94c-4.43,0-8.27.07-11.52.2Z"/>
      <path class="cls-1" d="M427.68,159.77c-5.73-7.81-9.08-17.8-10.06-29.98-.98-12.17-1.46-31.67-1.46-58.5,0-11.59-1.01-21.81-3.03-30.66-2.02-8.85-5.18-16.21-9.47-22.07s-9.9-10.28-16.8-13.28c-4.3-2.21-8.98-3.64-14.06-4.3-5.08-.65-11.2-.98-18.36-.98h-10.74v30.86h6.05c9.38,0,16.37,1.04,21,3.12,4.62,2.08,7.88,5.93,9.77,11.52,1.89,5.6,2.83,14.19,2.83,25.78v28.32c0,13.67.68,25.23,2.05,34.67,1.37,9.44,3.64,17.51,6.84,24.22,3.19,6.71,7.35,12.37,12.5,16.99,5.14,4.62,11.62,8.82,19.43,12.6-16.02,6.64-26.83,16.64-32.42,29.98-5.6,13.35-8.4,32.65-8.4,57.91v28.91c0,11.59-.95,20.18-2.83,25.78-1.89,5.6-5.15,9.38-9.77,11.33-4.62,1.95-11.62,2.93-21,2.93h-6.05v30.66h10.74c7.16,0,13.18-.23,18.07-.68,4.88-.46,9.67-1.79,14.36-4,6.64-3,12.17-7.46,16.6-13.38,4.42-5.93,7.65-13.35,9.67-22.27,2.02-8.92,3.03-19.17,3.03-30.76,0-26.69.49-46.09,1.46-58.2s4.33-22.07,10.06-29.88c5.73-7.81,15.49-11.91,29.3-12.3v-32.03c-13.8-.39-23.57-4.49-29.3-12.3Z"/>
    </g>
  </g>
</svg>