<?xml version="1.0" encoding="UTF-8"?>
<svg id="Layer_2" data-name="Layer 2" xmlns="http://www.w3.org/2000/svg" viewBox="0 0 449.57 119.66">
  <defs>
    <style>
      .cls-1 {
        fill: #fff;
      }
    </style>
  </defs>
  <g id="Layer_6" data-name="Layer 6">
    <g>
      <polygon class="cls-1" points="0 39.09 0 57.26 15.77 66.26 44.83 82.97 44.83 64.8 15.86 48.17 15.77 48.17 15.77 48.09 15.86 48.17 44.83 31.46 44.83 13.29 15.77 30 0 39.09"/>
      <rect class="cls-1" x="53.4" y="5.14" width="15.77" height="85.97"/>
      <path class="cls-1" d="M146.36,32.44c-1.23-1.23-2.66-2.2-4.29-2.91-1.63-.71-3.36-1.07-5.19-1.07h-45.69c-1.83,0-3.56.36-5.19,1.07-1.63.71-3.06,1.69-4.29,2.91s-2.2,2.66-2.91,4.29c-.71,1.63-1.07,3.36-1.07,5.19v12.34c0,1.94.4,3.8,1.2,5.57,1.08,2.34,2.71,4.24,4.89,5.7,2.17,1.46,4.63,2.19,7.37,2.19h43.46v7.71h-41.23v-2.4h-15.69v4.71c0,1.83.36,3.56,1.07,5.19.71,1.63,1.69,3.06,2.91,4.29,1.23,1.23,2.66,2.2,4.29,2.91,1.63.72,3.36,1.07,5.19,1.07h45.69c1.83,0,3.56-.36,5.19-1.07,1.63-.71,3.06-1.68,4.29-2.91s2.2-2.66,2.91-4.29c.71-1.63,1.07-3.36,1.07-5.19v-12.34c0-1.94-.4-3.8-1.2-5.57-1.09-2.34-2.71-4.24-4.89-5.7-2.17-1.46-4.63-2.19-7.37-2.19h-43.46v-7.71h41.23v2.4h15.69v-4.71c0-1.83-.36-3.56-1.07-5.19-.72-1.63-1.69-3.06-2.91-4.29Z"/>
      <path class="cls-1" d="M227.53,32.44c-1.23-1.23-2.66-2.2-4.29-2.91-1.63-.71-3.36-1.07-5.19-1.07h-43.46V0h-15.69v91.2h15.69v-46.97h41.14v46.97h15.77v-49.29c0-1.83-.36-3.56-1.07-5.19-.72-1.63-1.69-3.06-2.91-4.29Z"/>
      <path class="cls-1" d="M297.08,75.43h-41.23V28.46h-15.77v49.29c0,1.83.36,3.56,1.07,5.19.71,1.63,1.69,3.06,2.91,4.29,1.23,1.23,2.66,2.2,4.29,2.91,1.63.72,3.36,1.07,5.19,1.07h43.54v12.69h-41.23v-6.17h-15.77v21.94h59.23c1.83,0,3.56-.36,5.19-1.07,1.63-.72,3.06-1.69,4.29-2.91,1.23-1.23,2.2-2.66,2.92-4.29.71-1.63,1.07-3.36,1.07-5.19V28.46h-15.69v46.97Z"/>
      <polygon class="cls-1" points="321.34 91.11 340.11 91.11 396.17 5.14 377.4 5.14 321.34 91.11"/>
      <polygon class="cls-1" points="433.8 30 404.74 13.29 404.74 31.46 433.8 48.17 404.74 64.8 404.74 82.97 433.8 66.26 449.57 57.26 449.57 39.09 433.8 30"/>
    </g>
  </g>
</svg>